<?xml version="1.0" encoding="UTF-8" standalone="no"?>
<!DOCTYPE svg PUBLIC "-//W3C//DTD SVG 1.1//EN" "http://www.w3.org/Graphics/SVG/1.1/DTD/svg11.dtd">
<svg xmlns="http://www.w3.org/2000/svg" version="1.1" viewBox="0.00 0.00 404.00 276.00">
<path fill="#000000" d="
  M 309.09 219.10
  C 305.18 209.20 303.70 197.36 300.29 188.73
  C 292.80 169.77 271.13 176.37 255.84 173.90
  Q 249.97 172.95 244.83 170.92
  Q 227.03 163.87 209.24 156.85
  C 203.00 154.39 195.63 156.48 191.91 161.92
  Q 173.33 189.05 160.87 224.83
  Q 160.70 225.32 160.93 225.78
  Q 161.17 226.26 160.66 226.75
  Q 160.30 227.10 160.16 227.59
  C 159.39 230.34 158.83 232.44 157.10 234.96
  C 152.30 241.99 151.11 248.27 153.44 256.58
  Q 154.30 259.64 151.37 260.48
  C 142.19 263.12 121.87 264.81 113.60 257.83
  A 1.20 1.16 -70.2 0 1 113.19 256.93
  Q 113.19 253.76 115.71 252.44
  C 123.56 248.33 127.58 244.57 128.74 235.93
  C 132.94 204.78 138.58 173.74 143.54 142.70
  Q 143.57 142.56 143.49 142.43
  L 143.27 142.06
  A 0.18 0.16 47.9 0 1 143.27 141.89
  C 144.84 139.37 145.56 136.38 146.05 133.41
  C 147.32 125.68 141.98 119.56 135.51 115.87
  Q 135.08 115.63 134.59 115.68
  C 125.18 116.72 115.49 119.72 106.74 124.64
  Q 106.30 124.88 106.18 125.36
  C 105.34 128.61 103.53 131.37 102.56 134.44
  C 100.34 141.52 84.67 155.65 75.26 155.96
  Q 74.78 155.98 74.35 156.22
  Q 72.73 157.13 70.81 156.67
  Q 70.21 156.53 70.16 155.91
  L 69.91 152.93
  Q 69.87 152.44 69.61 152.03
  Q 68.79 150.74 67.60 149.76
  Q 67.20 149.43 66.67 149.45
  C 61.80 149.67 56.45 150.16 52.05 150.00
  C 32.23 149.31 12.40 143.01 4.67 122.65
  C -1.55 106.27 3.33 86.46 13.58 72.66
  C 20.39 63.48 33.51 51.92 45.37 61.29
  Q 49.00 64.16 48.83 68.35
  Q 48.80 68.97 48.19 68.91
  Q 35.55 67.79 27.46 75.95
  C 18.04 85.46 15.00 101.76 22.74 112.92
  Q 27.77 120.18 37.52 123.23
  C 56.03 129.01 65.11 105.29 69.25 92.50
  C 75.73 72.48 80.46 52.27 90.79 33.73
  C 91.86 31.80 94.21 28.96 95.77 27.10
  C 106.51 14.32 121.19 13.60 136.45 17.44
  Q 149.75 20.78 163.24 23.21
  C 171.15 24.63 178.84 24.36 186.79 24.08
  Q 187.30 24.06 187.71 23.76
  C 188.82 22.95 190.05 23.34 191.10 23.07
  C 207.07 19.03 225.95 13.83 243.99 13.95
  C 255.27 14.02 266.58 16.71 277.32 20.41
  C 293.06 25.84 308.70 30.81 323.77 38.00
  A 2.37 2.30 57.2 0 0 324.71 38.22
  Q 325.58 38.23 326.09 38.94
  Q 326.40 39.37 326.88 39.61
  C 347.54 49.94 362.12 66.15 367.74 89.26
  Q 371.79 105.92 373.09 116.74
  Q 377.37 152.42 385.91 187.30
  C 388.29 197.04 392.66 206.63 396.10 216.34
  Q 396.73 218.12 396.73 219.38
  A 1.00 1.00 0.0 0 1 394.88 219.89
  C 377.43 190.64 368.83 159.07 363.41 125.83
  A 0.44 0.44 0.0 0 0 362.54 125.81
  Q 357.36 150.09 352.15 174.55
  Q 349.58 186.66 349.18 194.28
  Q 348.06 215.74 354.01 236.54
  C 355.07 240.22 356.77 246.78 358.66 251.78
  C 360.09 255.56 359.13 259.05 355.24 260.24
  Q 338.83 265.27 320.26 261.23
  Q 319.75 261.12 319.56 260.63
  C 318.55 258.02 322.78 251.21 323.95 248.82
  A 1.82 1.82 0.0 0 0 323.83 247.01
  C 317.86 238.13 313.00 228.99 309.09 219.10
  Z
  M 226.10 23.37
  C 235.68 47.39 260.58 48.04 275.96 28.58
  A 1.19 1.19 0.0 0 0 275.92 27.06
  C 274.96 25.97 274.20 25.29 272.72 24.91
  C 259.62 21.54 244.78 17.34 231.31 18.83
  Q 227.88 19.21 226.17 22.32
  Q 225.89 22.83 226.10 23.37
  Z
  M 85.30 66.29
  C 89.14 66.43 89.76 63.07 91.50 61.01
  C 96.46 55.14 101.67 52.92 109.34 52.34
  Q 113.42 52.03 117.41 50.98
  A 1.39 1.37 9.6 0 0 118.20 50.43
  C 123.62 42.63 128.39 33.54 132.93 25.57
  Q 133.93 23.82 132.00 23.24
  C 116.58 18.55 107.64 24.23 99.47 36.34
  Q 97.78 38.84 95.71 41.44
  C 93.28 44.51 83.87 57.34 83.98 60.73
  A 1.24 1.24 0.0 0 1 83.68 61.59
  Q 82.42 63.01 83.27 64.92
  A 2.32 2.31 78.9 0 0 85.30 66.29
  Z
  M 301.55 163.04
  Q 302.85 171.49 301.51 177.51
  C 301.05 179.58 300.83 180.85 303.46 181.02
  Q 308.62 181.34 314.03 179.39
  A 1.03 1.03 0.0 0 0 314.58 177.93
  C 310.81 171.01 309.06 164.50 308.18 156.05
  C 306.63 141.08 304.55 125.89 306.53 110.87
  C 309.36 89.46 318.26 71.35 332.26 54.51
  Q 333.06 53.55 334.23 51.42
  A 1.05 1.01 -42.8 0 0 334.28 50.51
  C 333.12 47.71 329.45 42.94 326.07 46.58
  C 314.31 59.26 305.88 70.57 300.63 86.97
  C 294.77 105.23 295.57 125.19 296.06 144.07
  Q 296.10 145.73 294.53 145.18
  C 293.66 144.87 292.87 144.52 291.79 144.44
  Q 277.93 143.48 264.65 139.66
  C 253.29 136.39 242.34 129.61 231.73 127.06
  Q 212.95 122.55 194.76 130.39
  A 0.85 0.85 0.0 0 1 193.59 129.46
  C 195.50 118.66 197.91 107.85 199.00 97.28
  C 200.50 82.72 201.49 68.34 200.63 53.69
  C 200.23 46.83 198.23 37.23 193.47 32.15
  C 190.90 29.41 185.74 26.48 182.32 29.29
  Q 181.94 29.59 181.94 30.08
  C 181.94 32.60 183.82 33.47 184.86 34.96
  Q 190.27 42.72 191.25 49.75
  Q 194.18 70.75 190.95 96.99
  Q 187.37 126.17 176.80 162.81
  Q 176.65 163.34 177.08 163.68
  C 181.41 167.06 186.46 163.27 187.30 158.46
  Q 188.22 153.14 188.45 148.06
  A 1.82 1.81 80.1 0 1 189.57 146.46
  C 196.29 143.69 203.40 141.73 210.87 141.74
  C 217.50 141.74 226.15 141.15 232.21 144.25
  C 255.69 156.23 277.24 161.59 300.75 162.34
  A 0.84 0.83 -3.8 0 1 301.55 163.04
  Z
  M 128.92 92.07
  C 133.02 102.99 138.67 113.17 149.48 118.76
  C 154.84 121.53 158.75 119.90 162.63 115.96
  Q 178.55 99.81 186.00 78.28
  C 188.52 70.99 188.48 62.96 186.63 55.65
  C 184.42 46.96 177.52 40.47 169.73 35.91
  C 167.42 34.56 164.26 34.91 162.08 35.11
  Q 148.87 36.30 135.78 38.07
  Q 132.27 38.54 132.03 41.10
  Q 131.98 41.70 132.42 42.12
  C 135.40 44.97 138.32 46.04 142.66 45.50
  C 151.74 44.37 166.39 40.95 173.62 49.51
  C 187.37 65.77 171.32 92.84 160.24 106.33
  C 158.05 108.99 152.37 115.29 149.02 110.74
  Q 140.06 98.56 130.96 86.35
  A 1.19 1.19 0.0 0 0 128.92 86.56
  Q 127.78 89.05 128.92 92.07
  Z
  M 235.75 70.50
  C 234.52 71.53 232.68 72.35 231.35 74.11
  C 227.83 78.77 225.40 83.80 225.65 89.74
  C 226.16 101.65 234.83 110.16 246.23 112.43
  C 253.42 113.85 261.52 109.18 266.54 104.37
  A 2.34 2.26 80.8 0 0 267.08 103.59
  Q 267.36 102.91 268.31 101.57
  C 282.86 81.18 254.84 54.48 235.75 70.50
  Z
  M 111.30 76.73
  C 106.43 74.95 102.68 78.40 99.29 81.44
  Q 98.85 81.84 98.83 82.43
  L 98.71 86.51
  A 0.70 0.70 0.0 0 0 99.52 87.22
  Q 100.86 86.99 101.88 87.71
  Q 102.34 88.03 102.83 87.75
  C 106.69 85.55 111.64 82.63 111.91 77.67
  A 0.95 0.94 -78.3 0 0 111.30 76.73
  Z
  M 76.81 151.22
  Q 81.34 149.32 84.87 145.85
  Q 85.51 145.23 86.33 144.97
  Q 86.81 144.81 87.16 144.46
  C 91.16 140.48 95.43 136.89 98.29 131.94
  C 99.39 130.02 102.33 125.97 102.25 123.85
  A 0.84 0.81 74.7 0 1 102.65 123.12
  Q 103.73 122.49 102.99 121.31
  Q 100.18 116.79 95.34 118.79
  C 93.66 119.48 93.53 121.99 92.99 123.13
  Q 90.13 129.16 86.27 134.58
  C 84.82 136.61 83.54 139.43 81.61 141.54
  C 79.77 143.55 78.41 145.89 76.34 147.72
  Q 75.90 148.11 75.90 148.70
  Q 75.89 150.38 74.93 151.68
  A 0.40 0.40 0.0 0 0 75.37 152.30
  Q 75.79 152.17 76.07 151.79
  Q 76.36 151.40 76.81 151.22
  Z"
/>
<path fill="#000000" d="
  M 116.08 34.67
  A 1.02 1.02 0.0 0 1 115.25 33.85
  Q 113.84 26.17 121.70 25.68
  Q 122.33 25.64 122.55 26.23
  C 124.52 31.48 121.91 35.59 116.08 34.67
  Z"
/>
<ellipse fill="#000000" cx="0.00" cy="0.00" transform="translate(109.99,41.87) rotate(21.9)" rx="5.01" ry="4.47"/>
<path fill="#000000" d="
  M 206.81 159.70
  C 210.12 160.77 209.69 167.27 209.50 169.50
  C 208.64 179.64 208.21 189.80 207.46 199.94
  C 206.30 215.79 214.01 226.86 221.01 240.22
  C 222.74 243.52 221.93 246.24 219.51 249.03
  C 212.85 256.73 206.32 255.44 197.16 255.69
  Q 190.06 255.88 183.63 252.51
  A 1.09 1.08 -61.4 0 1 183.19 251.00
  C 186.40 245.44 189.98 241.40 185.31 234.91
  C 183.83 232.85 182.65 231.47 182.06 228.87
  Q 179.63 218.07 176.55 207.44
  C 173.23 196.00 189.40 172.96 195.87 163.41
  Q 199.90 157.46 206.81 159.70
  Z"
/>
<path fill="#000000" d="
  M 261.93 256.11
  C 255.64 255.14 254.61 251.24 258.88 246.75
  C 262.83 242.61 264.37 238.68 264.74 232.61
  C 265.80 215.21 267.88 199.67 272.69 182.68
  Q 273.67 179.22 277.24 179.21
  C 303.57 179.17 303.54 218.89 299.91 235.64
  C 298.50 242.20 298.58 245.38 300.48 251.31
  Q 301.57 254.73 298.09 255.41
  Q 280.06 258.93 261.93 256.11
  Z"
/>
</svg>
