<?xml version="1.0" encoding="UTF-8" standalone="no"?>
<!DOCTYPE svg PUBLIC "-//W3C//DTD SVG 1.1//EN" "http://www.w3.org/Graphics/SVG/1.1/DTD/svg11.dtd">
<svg xmlns="http://www.w3.org/2000/svg" version="1.1" viewBox="0.00 0.00 982.00 46.00">
<path fill="#545454" d="
  M 37.57 27.51
  Q 32.92 38.66 22.08 38.63
  C 2.25 38.56 0.64 9.69 20.35 7.23
  Q 32.09 5.77 37.46 17.98
  A 1.71 1.70 78.0 0 0 39.02 19.00
  L 942.25 19.00
  A 2.38 2.37 11.7 0 0 944.43 17.57
  Q 948.45 8.35 957.55 7.19
  C 971.61 5.39 980.66 21.31 972.27 32.55
  C 964.71 42.67 949.55 39.84 944.61 28.68
  C 943.36 25.87 942.05 27.02 939.86 27.02
  Q 489.08 26.94 38.29 27.03
  Q 37.77 27.03 37.57 27.51
  Z
  M 967.57 22.89
  A 8.01 8.01 0.0 0 0 959.56 14.88
  A 8.01 8.01 0.0 0 0 951.55 22.89
  A 8.01 8.01 0.0 0 0 959.56 30.90
  A 8.01 8.01 0.0 0 0 967.57 22.89
  Z"
/>
</svg>
