<?xml version="1.0" encoding="UTF-8" standalone="no"?>
<!DOCTYPE svg PUBLIC "-//W3C//DTD SVG 1.1//EN" "http://www.w3.org/Graphics/SVG/1.1/DTD/svg11.dtd">
<svg xmlns="http://www.w3.org/2000/svg" version="1.1" viewBox="0.00 0.00 2082.00 111.00">
<path fill="#545454" d="
  M 103.75 64.40
  C 95.43 90.69 61.42 98.17 44.84 75.42
  C 32.24 58.13 38.11 34.47 57.48 25.32
  C 76.39 16.38 98.04 26.94 103.75 46.85
  Q 103.87 47.25 104.28 47.25
  L 1993.24 47.25
  A 0.31 0.31 0.0 0 0 1993.54 47.02
  C 2002.10 15.27 2045.43 13.81 2057.18 44.06
  C 2063.63 60.65 2054.64 79.40 2038.76 86.24
  C 2019.93 94.34 1999.48 83.62 1993.57 64.44
  Q 1993.44 64.00 1992.98 64.00
  L 104.30 64.00
  Q 103.88 64.00 103.75 64.40
  Z
  M 2042.34 55.51
  A 16.57 16.57 0.0 0 0 2025.77 38.94
  A 16.57 16.57 0.0 0 0 2009.20 55.51
  A 16.57 16.57 0.0 0 0 2025.77 72.08
  A 16.57 16.57 0.0 0 0 2042.34 55.51
  Z"
/>
</svg>
