<?xml version="1.0" encoding="UTF-8" standalone="no"?>
<!DOCTYPE svg PUBLIC "-//W3C//DTD SVG 1.1//EN" "http://www.w3.org/Graphics/SVG/1.1/DTD/svg11.dtd">
<svg xmlns="http://www.w3.org/2000/svg" version="1.1" viewBox="0.00 0.00 1000.00 50.00">
<path fill="#84817a" d="
  M 38.73 36.73
  C 35.77 34.65 31.55 30.67 29.53 27.73
  A 1.83 1.81 50.4 0 1 29.74 25.42
  L 37.67 17.44
  A 2.04 2.04 0.0 0 1 40.56 17.43
  L 46.73 23.60
  Q 47.14 24.02 47.73 24.02
  L 954.97 24.00
  A 1.26 1.23 22.4 0 0 955.84 23.65
  L 962.08 17.43
  A 2.05 2.05 0.0 0 1 964.98 17.43
  L 973.20 25.65
  A 1.86 1.86 0.0 0 1 973.20 28.29
  L 965.21 36.24
  A 2.14 2.14 0.0 0 1 962.22 36.25
  L 955.49 29.67
  A 1.48 1.47 67.1 0 0 954.46 29.25
  L 48.60 29.25
  A 2.83 2.81 22.7 0 0 46.63 30.05
  L 39.96 36.63
  A 0.97 0.96 40.2 0 1 38.73 36.73
  Z
  M 42.1957 27.3638
  A 0.94 0.94 0.0 0 0 42.1841 26.0345
  L 39.6307 23.5253
  A 0.94 0.94 0.0 0 0 38.3014 23.5369
  L 35.9043 25.9762
  A 0.94 0.94 0.0 0 0 35.9159 27.3055
  L 38.4693 29.8147
  A 0.94 0.94 0.0 0 0 39.7986 29.8031
  L 42.1957 27.3638
  Z
  M 964.3673 23.7649
  A 1.00 1.00 0.0 0 0 962.9532 23.7451
  L 960.6161 26.0179
  A 1.00 1.00 0.0 0 0 960.5963 27.4320
  L 962.9527 29.8551
  A 1.00 1.00 0.0 0 0 964.3668 29.8749
  L 966.7039 27.6021
  A 1.00 1.00 0.0 0 0 966.7237 26.1880
  L 964.3673 23.7649
  Z"
/>
</svg>
