<?xml version="1.0" encoding="UTF-8" standalone="no"?>
<!DOCTYPE svg PUBLIC "-//W3C//DTD SVG 1.1//EN" "http://www.w3.org/Graphics/SVG/1.1/DTD/svg11.dtd">
<svg xmlns="http://www.w3.org/2000/svg" version="1.1" viewBox="0.00 0.00 2000.00 68.00">
<path fill="#363839" d="
  M 31.01 0.00
  L 38.31 0.00
  Q 43.18 3.92 47.57 8.44
  C 52.78 13.81 58.65 19.09 64.05 24.37
  Q 64.43 24.75 64.97 24.75
  L 1934.46 24.75
  A 5.24 5.22 22.4 0 0 1938.16 23.22
  L 1959.10 2.27
  A 1.76 1.74 16.0 0 1 1959.96 1.80
  Q 1962.27 1.29 1963.56 0.00
  L 1965.18 0.00
  L 1970.53 2.06
  A 0.74 0.59 73.0 0 1 1970.75 2.21
  L 1997.60 29.01
  A 1.41 1.37 23.5 0 1 1998.00 29.98
  L 1997.96 38.09
  Q 1997.96 38.58 1997.60 38.93
  Q 1983.64 52.48 1978.92 57.93
  Q 1973.25 64.45 1967.49 68.00
  L 1966.44 68.00
  L 1961.99 67.74
  Q 1961.50 67.71 1961.10 67.41
  Q 1956.16 63.84 1952.42 59.10
  C 1948.45 54.06 1944.27 49.58 1939.38 45.88
  Q 1937.72 44.63 1936.41 42.93
  A 1.13 1.11 70.5 0 0 1935.53 42.50
  L 64.74 42.50
  Q 64.36 42.50 64.09 42.77
  L 46.96 59.93
  A 1.34 1.34 0.0 0 1 46.19 60.31
  Q 45.77 60.37 45.56 60.56
  Q 41.78 64.10 38.43 68.00
  L 31.22 68.00
  Q 17.54 54.86 4.23 41.38
  C 0.76 37.87 1.00 30.50 4.48 27.07
  Q 18.05 13.67 31.01 0.00
  Z
  M 36.2530 22.2159
  A 0.74 0.74 0.0 0 0 35.2073 22.1739
  L 23.5369 32.9431
  A 0.74 0.74 0.0 0 0 23.4949 33.9888
  L 34.0470 45.4241
  A 0.74 0.74 0.0 0 0 35.0927 45.4661
  L 46.7631 34.6969
  A 0.74 0.74 0.0 0 0 46.8051 33.6512
  L 36.2530 22.2159
  Z
  M 1966.0752 23.4308
  A 1.66 1.66 0.0 0 0 1963.7276 23.4267
  L 1954.3208 32.8007
  A 1.66 1.66 0.0 0 0 1954.3167 35.1483
  L 1963.7048 44.5692
  A 1.66 1.66 0.0 0 0 1966.0524 44.5733
  L 1975.4592 35.1993
  A 1.66 1.66 0.0 0 0 1975.4633 32.8517
  L 1966.0752 23.4308
  Z"
/>
</svg>
