<?xml version="1.0" encoding="UTF-8" standalone="no"?>
<!DOCTYPE svg PUBLIC "-//W3C//DTD SVG 1.1//EN" "http://www.w3.org/Graphics/SVG/1.1/DTD/svg11.dtd">
<svg xmlns="http://www.w3.org/2000/svg" version="1.1" viewBox="0.00 0.00 1040.00 89.00">
<path fill="#000000" d="
  M 66.48 40.69
  Q 500.27 40.82 934.06 40.83
  Q 954.24 40.83 974.50 40.70
  Q 974.99 40.69 975.35 40.35
  Q 983.47 32.67 985.54 30.33
  C 987.93 27.63 989.86 28.26 992.22 30.60
  Q 997.56 35.89 1002.83 41.25
  C 1004.85 43.30 1005.56 45.42 1003.35 47.59
  Q 997.89 52.98 992.49 58.41
  C 989.61 61.31 987.29 61.79 984.60 58.38
  Q 982.41 55.60 975.25 49.05
  Q 974.92 48.75 974.48 48.75
  L 66.03 48.75
  A 2.78 2.76 22.4 0 0 64.07 49.56
  Q 59.17 54.45 53.80 59.80
  C 52.13 61.47 50.04 60.86 48.43 59.28
  Q 38.69 49.72 36.23 47.02
  C 34.36 44.98 35.58 42.83 37.32 41.07
  Q 43.23 35.09 49.22 29.21
  C 53.61 24.89 61.99 40.69 66.48 40.69
  Z
  M 51.7860 38.6350
  A 0.55 0.55 0.0 0 0 51.0082 38.6337
  L 45.2848 44.3371
  A 0.55 0.55 0.0 0 0 45.2835 45.1149
  L 50.8740 50.7250
  A 0.55 0.55 0.0 0 0 51.6518 50.7263
  L 57.3752 45.0229
  A 0.55 0.55 0.0 0 0 57.3765 44.2451
  L 51.7860 38.6350
  Z
  M 994.6833 45.1920
  A 0.62 0.62 0.0 0 0 994.6833 44.3152
  L 989.0548 38.6867
  A 0.62 0.62 0.0 0 0 988.1780 38.6867
  L 982.6767 44.1880
  A 0.62 0.62 0.0 0 0 982.6767 45.0648
  L 988.3052 50.6933
  A 0.62 0.62 0.0 0 0 989.1820 50.6933
  L 994.6833 45.1920
  Z"
/>
</svg>
