<svg xmlns="http://www.w3.org/2000/svg" width="512" height="512" id="tripadvisor"><g fill="#262626"><path d="M425.681 86.346c-43.448-43.446-103.494-70.28-169.652-70.28-66.293 0-126.344 26.834-169.785 70.279-43.315 43.442-70.282 103.359-70.282 169.652 0 66.292 26.967 126.211 70.282 169.654 43.44 43.447 103.492 70.281 169.785 70.281 66.158 0 126.205-26.834 169.652-70.281 43.311-43.443 70.282-103.362 70.282-169.654s-26.972-126.209-70.282-169.651zm-13.287 326.019c-39.988 40.126-95.389 64.835-156.365 64.835-61.114 0-116.514-24.709-156.502-64.835-39.989-39.984-64.698-95.252-64.698-156.367 0-61.111 24.709-116.377 64.698-156.365C139.515 59.509 194.915 34.8 256.029 34.8c60.976 0 116.376 24.709 156.365 64.833 39.989 39.988 64.836 95.254 64.836 156.365-.001 61.115-24.847 116.383-64.836 156.367z"></path><path d="M190.666 247.896c-13.552 0-24.58 11.023-24.58 24.577 0 13.552 11.027 24.44 24.58 24.44a24.378 24.378 0 0 0 24.444-24.44c0-13.553-10.897-24.577-24.444-24.577zm0 40.79c-9.036 0-16.479-7.312-16.479-16.212 0-9.038 7.443-16.344 16.479-16.344 9.03 0 16.339 7.306 16.339 16.344 0 8.9-7.309 16.212-16.339 16.212z"></path><path d="M190.666 264.235c-4.517 0-8.238 3.587-8.238 8.106 0 4.514 3.722 8.105 8.238 8.105 4.512 0 8.233-3.592 8.233-8.105 0-4.519-3.721-8.106-8.233-8.106z"></path><path d="M378.519 213H337.73c-24.709-24-49.026-32.814-81.834-32.814-32.683 0-56.997 8.814-81.709 32.814h-40.781s0 13.462 16.471 17.313c-3.189 4.385-6.376 10.253-9.3 16.229-4.117 8.105-7.171 17.679-7.171 25.657 0 33.605 23.645 57.13 57.26 57.13 18.996 0 37.731-10.561 49.021-24.24l16.208 24.338 16.341-24.289c11.29 13.685 30.023 24.315 49.017 24.315 33.615 0 57.265-23.375 57.265-56.984 0-7.576-2.924-16.341-6.78-24.31-2.92-6.246-6.374-13.327-9.695-17.846C378.519 226.462 378.519 213 378.519 213zM190.666 313.258c-22.585 0-40.789-18.469-40.789-40.784 0-12.09 5.316-22.984 13.549-30.295 7.174-6.639 16.741-10.758 27.239-10.758 6.374 0 12.22 1.727 17.798 4.119 13.554 6.775 22.985 20.723 22.985 36.934.001 22.315-18.197 40.784-40.782 40.784zm65.23-16.344c0-23.641-10.762-47.027-26.309-62.704-11.292-11.56-25.242-18.996-38.921-18.996 0 0 24.444-24.579 65.23-24.579 40.782 0 65.358 24.579 65.358 24.579-13.944 0-27.898 7.437-39.188 19.129-15.28 15.808-26.17 39.191-26.17 62.571zm65.358 16.344c-22.584 0-40.783-18.469-40.783-40.784a40.921 40.921 0 0 1 22.32-36.534c5.578-2.792 11.692-4.519 18.463-4.519 11.163 0 20.995 4.519 28.302 11.56 7.836 7.576 12.487 17.801 12.487 29.493 0 22.315-18.204 40.784-40.789 40.784z"></path><path d="M321.254 247.896c-13.547 0-24.576 11.023-24.576 24.577 0 13.552 11.029 24.44 24.576 24.44a24.379 24.379 0 0 0 24.449-24.44c0-13.553-10.896-24.577-24.449-24.577zm0 40.79c-9.027 0-16.339-7.312-16.339-16.212 0-9.038 7.312-16.344 16.339-16.344 9.038 0 16.477 7.306 16.477 16.344-.001 8.9-7.439 16.212-16.477 16.212z"></path><path d="M321.254 264.235c-4.514 0-8.232 3.587-8.232 8.106 0 4.514 3.719 8.105 8.232 8.105 4.52 0 8.238-3.592 8.238-8.105 0-4.519-3.719-8.106-8.238-8.106z"></path></g></svg>