<?xml version="1.0" encoding="UTF-8" standalone="no"?>
<!DOCTYPE svg PUBLIC "-//W3C//DTD SVG 1.1//EN" "http://www.w3.org/Graphics/SVG/1.1/DTD/svg11.dtd">
<svg xmlns="http://www.w3.org/2000/svg" version="1.1" viewBox="0.00 0.00 245.00 246.00">
<g stroke-width="2.00" fill="none" stroke-linecap="butt">
<path stroke="#959087" vector-effect="non-scaling-stroke" d="
  M 238.03 123.80
  A 115.37 115.37 0.0 0 0 122.66 8.43
  A 115.37 115.37 0.0 0 0 7.29 123.80
  A 115.37 115.37 0.0 0 0 122.66 239.17
  A 115.37 115.37 0.0 0 0 238.03 123.80"
/>
<path stroke="#959087" vector-effect="non-scaling-stroke" d="
  M 88.33 34.57
  L 83.59 28.89
  Q 83.20 28.43 83.53 27.91
  Q 84.75 25.96 83.96 23.69
  A 1.69 1.69 0.0 0 0 81.87 22.64
  L 69.38 26.55
  A 0.81 0.80 -7.4 0 0 68.82 27.27
  Q 68.61 30.94 72.22 31.69
  Q 72.65 31.78 72.96 32.09
  L 84.06 43.18
  A 1.53 1.53 0.0 0 0 85.59 43.56
  C 87.59 42.94 94.04 42.11 94.24 39.48
  Q 94.51 35.80 95.33 32.85
  A 0.46 0.45 -57.8 0 1 96.11 32.67
  L 101.27 38.45
  A 0.84 0.84 0.0 0 0 102.15 38.70
  L 110.22 36.15
  Q 110.75 35.99 110.86 35.44
  C 112.01 29.74 112.56 21.73 115.72 16.87
  Q 115.99 16.46 115.94 15.96
  C 115.46 11.11 107.14 15.03 104.17 16.13
  Q 103.68 16.31 103.55 16.81
  C 102.93 19.05 104.97 19.93 106.38 21.05
  Q 106.80 21.38 106.74 21.92
  L 106.07 28.84
  A 0.71 0.70 -63.5 0 1 104.85 29.25
  L 99.83 23.88
  Q 99.42 23.45 99.76 22.96
  Q 100.97 21.15 100.18 19.08
  A 1.85 1.85 0.0 0 0 97.95 17.97
  L 87.74 20.87
  Q 87.21 21.02 87.22 21.57
  Q 87.23 24.49 89.80 25.86
  A 0.83 0.82 -72.1 0 1 90.22 26.69
  L 89.20 34.32
  A 0.49 0.49 0.0 0 1 88.33 34.57"
/>
<path stroke="#959087" vector-effect="non-scaling-stroke" d="
  M 130.59 29.34
  L 138.89 30.45
  A 0.96 0.96 0.0 0 1 139.22 32.24
  C 137.38 33.24 134.02 37.15 138.57 37.65
  Q 144.60 38.32 150.60 39.34
  A 1.08 1.08 0.0 0 0 151.47 39.10
  C 153.22 37.58 152.70 34.87 150.64 33.79
  Q 150.22 33.57 150.06 33.12
  L 146.83 24.06
  A 0.77 0.77 0.0 0 1 147.22 23.10
  Q 149.77 21.84 149.20 18.83
  A 1.25 1.24 88.6 0 0 148.17 17.84
  L 129.13 15.07
  A 1.39 1.39 0.0 0 0 127.57 16.17
  Q 127.08 18.58 128.59 20.40
  A 0.68 0.67 -51.3 0 1 128.67 21.16
  Q 125.32 27.49 119.53 31.81
  A 1.70 1.70 0.0 0 0 120.29 34.86
  L 130.66 36.44
  Q 131.22 36.53 131.36 35.98
  Q 132.14 32.78 130.04 30.37
  A 0.63 0.62 73.3 0 1 130.59 29.34"
/>
<path stroke="#959087" vector-effect="non-scaling-stroke" d="
  M 177.64 54.23
  C 177.83 56.24 184.87 60.45 185.66 61.01
  Q 186.20 61.40 186.67 60.92
  L 188.96 58.56
  Q 189.21 58.30 189.01 58.01
  Q 186.82 54.73 187.02 50.80
  Q 187.05 50.21 187.64 50.24
  C 191.93 50.49 195.31 48.08 192.94 43.55
  C 188.90 35.84 177.48 28.84 169.88 24.69
  A 1.51 1.51 0.0 0 0 167.67 26.28
  C 168.58 31.46 165.81 33.85 163.03 37.59
  A 0.88 0.87 -67.7 0 1 162.21 37.94
  Q 158.65 37.45 158.22 40.92
  Q 158.14 41.53 158.64 41.88
  L 169.87 49.88
  A 1.62 1.61 -70.5 0 0 172.41 48.66
  L 172.74 43.76
  Q 172.78 43.07 173.44 42.89
  C 178.19 41.57 177.39 51.53 177.64 54.23"
/>
<path stroke="#959087" vector-effect="non-scaling-stroke" d="
  M 62.37 53.18
  C 57.38 50.45 55.62 47.01 54.10 42.36
  A 1.50 1.50 0.0 0 0 51.68 41.71
  L 41.37 50.91
  Q 40.83 51.40 41.25 51.99
  Q 42.95 54.43 46.06 54.38
  Q 46.59 54.37 46.95 54.77
  C 50.67 58.93 55.74 64.56 61.84 60.61
  Q 66.15 57.83 69.30 53.78
  C 74.35 47.31 70.43 42.24 65.50 37.77
  Q 65.08 37.40 65.25 36.86
  Q 66.23 33.76 63.87 31.80
  A 0.80 0.79 44.1 0 0 62.83 31.81
  L 55.16 38.59
  A 0.63 0.63 0.0 0 0 55.17 39.54
  C 57.35 41.45 71.21 49.51 63.11 53.21
  Q 62.73 53.38 62.37 53.18"
/>
<path stroke="#959087" vector-effect="non-scaling-stroke" d="
  M 169.66 58.80
  C 139.85 37.97 101.02 38.43 72.26 61.74
  Q 71.83 62.08 72.19 62.50
  L 74.28 64.96
  Q 74.69 65.45 75.19 65.05
  C 102.83 43.13 139.92 42.72 168.30 63.51
  A 0.62 0.62 0.0 0 0 169.17 63.38
  L 171.09 60.72
  A 0.58 0.57 41.6 0 0 171.04 59.99
  Q 170.36 59.28 169.66 58.80"
/>
<path stroke="#959087" vector-effect="non-scaling-stroke" d="
  M 121.30 51.68
  C 117.51 66.20 101.89 70.33 91.26 60.19
  A 0.64 0.64 0.0 0 0 90.22 60.44
  Q 83.31 80.03 63.45 72.21
  Q 62.71 71.92 63.13 72.59
  L 82.15 103.32
  A 1.53 1.52 -23.6 0 0 83.86 103.98
  C 110.06 96.70 134.29 96.16 160.21 104.26
  A 1.44 1.44 0.0 0 0 161.86 103.65
  L 181.49 72.33
  A 0.28 0.28 0.0 0 0 181.13 71.93
  C 168.27 77.72 159.33 73.84 154.05 61.09
  Q 153.82 60.53 153.31 60.86
  C 139.99 69.48 128.45 66.68 122.09 51.62
  A 0.42 0.42 0.0 0 0 121.30 51.68"
/>
<path stroke="#959087" vector-effect="non-scaling-stroke" d="
  M 32.42 80.94
  C 41.15 79.01 50.60 78.11 53.62 68.09
  Q 53.78 67.54 53.29 67.26
  L 41.18 60.39
  A 0.87 0.87 0.0 0 1 40.75 59.56
  Q 41.11 55.98 37.60 55.32
  Q 37.07 55.22 36.76 55.66
  C 34.99 58.20 33.59 60.96 31.91 63.56
  C 30.05 66.45 34.46 67.67 36.80 66.43
  A 0.94 0.93 -43.3 0 1 37.72 66.45
  L 40.53 68.13
  A 0.55 0.54 -38.1 0 1 40.41 69.12
  C 38.36 69.75 27.14 72.36 26.41 73.66
  Q 23.60 78.70 20.52 83.96
  A 1.84 1.83 -59.0 0 0 21.13 86.44
  C 23.12 87.69 24.04 86.54 25.94 86.25
  Q 26.54 86.16 27.06 86.46
  L 34.04 90.56
  A 0.82 0.82 0.0 0 1 34.43 91.41
  Q 33.89 94.60 37.29 95.53
  Q 37.78 95.66 38.04 95.23
  Q 40.94 90.60 43.60 85.81
  Q 43.92 85.23 43.36 84.89
  L 40.33 83.02
  Q 39.76 82.68 39.38 83.21
  L 38.59 84.30
  A 0.67 0.67 0.0 0 1 37.75 84.51
  L 32.32 81.77
  A 0.44 0.44 0.0 0 1 32.42 80.94"
/>
<path stroke="#959087" vector-effect="non-scaling-stroke" d="
  M 200.67 71.57
  A 0.65 0.65 0.0 0 1 201.87 71.41
  L 206.12 79.18
  A 0.61 0.61 0.0 0 1 205.44 80.07
  Q 202.43 79.35 199.70 80.75
  Q 199.17 81.03 199.46 81.56
  L 206.23 93.98
  Q 206.46 94.41 206.95 94.40
  Q 210.80 94.27 210.54 90.36
  Q 210.50 89.82 210.81 89.36
  L 216.13 81.30
  Q 216.46 80.80 217.01 81.04
  Q 219.73 82.23 221.72 80.11
  A 1.00 0.99 52.1 0 0 221.86 78.94
  L 212.41 61.94
  A 1.40 1.39 61.8 0 0 210.55 61.37
  Q 208.30 62.51 207.94 64.92
  Q 207.85 65.50 207.27 65.50
  L 197.42 65.50
  Q 196.91 65.50 196.49 65.21
  Q 193.96 63.49 192.06 65.80
  A 1.13 1.11 58.9 0 0 191.83 66.76
  C 192.42 69.37 197.99 82.61 200.67 71.57"
/>
<path stroke="#959087" vector-effect="non-scaling-stroke" d="
  M 175.46 182.95
  A 0.94 0.93 47.5 0 0 176.80 183.01
  C 204.74 156.72 210.58 117.24 192.08 83.65
  Q 191.61 82.79 190.85 83.41
  L 188.47 85.39
  Q 187.99 85.78 188.29 86.31
  C 204.11 114.53 200.94 147.82 180.23 172.71
  Q 178.29 175.04 173.55 179.95
  Q 173.15 180.35 173.53 180.78
  L 175.46 182.95"
/>
<path stroke="#959087" vector-effect="non-scaling-stroke" d="
  M 55.87 86.15
  L 53.45 84.67
  Q 52.96 84.37 52.68 84.87
  C 35.14 116.23 40.92 154.08 65.49 179.88
  Q 65.87 180.27 66.25 179.88
  L 68.68 177.42
  Q 68.99 177.11 68.69 176.80
  C 45.98 152.54 39.91 116.99 56.27 87.67
  Q 56.80 86.72 55.87 86.15"
/>
<path stroke="#959087" vector-effect="non-scaling-stroke" d="
  M 160.74 106.81
  Q 144.23 100.86 127.00 100.28
  Q 125.44 100.23 124.56 100.78
  A 0.93 0.93 0.0 0 0 124.78 102.45
  Q 127.12 103.18 130.05 103.50
  C 150.23 105.68 156.56 119.81 160.90 137.28
  A 0.18 0.18 0.0 0 0 161.25 137.24
  L 161.25 107.53
  A 0.76 0.76 0.0 0 0 160.74 106.81"
/>
<path stroke="#959087" vector-effect="non-scaling-stroke" d="
  M 82.83 108.03
  Q 82.54 122.72 83.00 137.41
  A 0.23 0.23 0.0 0 0 83.45 137.46
  Q 85.21 131.19 87.13 125.23
  C 91.06 113.06 100.13 105.22 112.69 103.56
  C 114.33 103.34 119.62 103.27 120.26 101.45
  A 0.59 0.59 0.0 0 0 119.70 100.67
  Q 101.25 100.65 83.81 106.67
  A 1.47 1.47 0.0 0 0 82.83 108.03"
/>
<path stroke="#959087" vector-effect="non-scaling-stroke" d="
  M 124.84 110.23
  A 2.63 2.63 0.0 0 0 122.21 107.60
  A 2.63 2.63 0.0 0 0 119.58 110.23
  A 2.63 2.63 0.0 0 0 122.21 112.86
  A 2.63 2.63 0.0 0 0 124.84 110.23"
/>
<path stroke="#959087" vector-effect="non-scaling-stroke" d="
  M 19.36 127.96
  L 25.67 112.95
  A 0.15 0.15 0.0 0 0 25.59 112.76
  L 25.50 112.72
  A 8.18 7.01 -67.2 0 0 15.87 117.54
  L 15.78 117.74
  A 8.18 7.01 -67.2 0 0 19.07 128.00
  L 19.17 128.04
  A 0.15 0.15 0.0 0 0 19.36 127.96"
/>
<path stroke="#959087" vector-effect="non-scaling-stroke" d="
  M 217.40 129.09
  A 0.67 0.66 -66.1 0 0 218.47 128.67
  L 221.11 113.07
  A 0.51 0.51 0.0 0 0 220.58 112.47
  C 210.67 113.02 210.56 123.73 217.40 129.09"
/>
<path stroke="#959087" vector-effect="non-scaling-stroke" d="
  M 223.74 113.02
  L 221.16 129.12
  A 0.12 0.12 0.0 0 0 221.26 129.25
  L 221.27 129.26
  A 8.12 7.33 -80.9 0 0 229.79 122.40
  L 229.84 122.10
  A 8.12 7.33 -80.9 0 0 223.88 112.92
  L 223.87 112.92
  A 0.12 0.12 0.0 0 0 223.74 113.02"
/>
<path stroke="#959087" vector-effect="non-scaling-stroke" d="
  M 28.28 113.94
  L 21.97 129.01
  A 0.13 0.13 0.0 0 0 22.04 129.18
  L 22.11 129.22
  A 8.14 6.85 -67.3 0 0 31.57 124.35
  L 31.70 124.05
  A 8.14 6.85 -67.3 0 0 28.52 113.90
  L 28.45 113.87
  A 0.13 0.13 0.0 0 0 28.28 113.94"
/>
<path stroke="#959087" vector-effect="non-scaling-stroke" d="
  M 128.20 122.26
  L 128.27 125.06
  A 0.26 0.26 0.0 0 0 128.53 125.31
  L 128.67 125.31
  A 14.86 1.60 -1.4 0 0 143.49 123.34
  L 143.49 123.22
  A 14.86 1.60 -1.4 0 0 128.59 121.99
  L 128.45 121.99
  A 0.26 0.26 0.0 0 0 128.20 122.26"
/>
<path stroke="#959087" vector-effect="non-scaling-stroke" d="
  M 117.59 124.89
  L 117.64 122.53
  A 0.25 0.25 0.0 0 0 117.40 122.28
  L 117.27 122.27
  A 15.60 1.38 1.3 0 0 101.64 123.30
  L 101.64 123.40
  A 15.60 1.38 1.3 0 0 117.21 125.13
  L 117.34 125.14
  A 0.25 0.25 0.0 0 0 117.59 124.89"
/>
<path stroke="#959087" vector-effect="non-scaling-stroke" d="
  M 115.77 130.36
  C 110.67 128.44 100.70 126.93 97.07 131.97
  Q 96.74 132.44 97.28 132.62
  C 103.26 134.64 110.55 137.03 115.69 131.81
  C 115.87 131.62 116.52 131.34 116.33 130.90
  A 1.02 0.99 88.2 0 0 115.77 130.36"
/>
<path stroke="#959087" vector-effect="non-scaling-stroke" d="
  M 147.67 132.36
  C 147.78 126.39 132.39 129.35 129.43 130.50
  A 0.78 0.77 -29.8 0 0 129.10 131.71
  C 133.57 137.33 141.26 134.22 147.14 132.99
  A 0.67 0.65 -5.6 0 0 147.67 132.36"
/>
<path stroke="#959087" vector-effect="non-scaling-stroke" d="
  M 215.86 170.99
  Q 211.69 169.97 212.55 165.68
  A 0.44 0.43 79.4 0 0 211.89 165.22
  Q 210.52 166.10 209.54 167.43
  Q 209.25 167.83 208.82 167.58
  L 205.71 165.78
  A 1.91 1.91 0.0 0 1 207.56 162.43
  Q 209.56 163.48 210.52 161.53
  Q 210.78 161.01 210.40 160.57
  C 209.46 159.52 206.06 158.25 208.57 156.37
  A 0.82 0.79 -53.4 0 1 209.30 156.25
  L 221.40 160.11
  A 0.94 0.93 3.4 0 1 222.02 160.80
  L 222.40 162.64
  A 0.92 0.91 48.5 0 0 224.16 162.75
  L 227.91 151.51
  A 1.24 1.24 0.0 0 0 226.98 149.90
  L 223.42 149.17
  A 1.45 1.45 0.0 0 0 222.32 151.79
  L 224.23 153.07
  A 1.71 1.70 61.9 0 1 223.28 156.19
  Q 221.11 156.19 219.20 155.34
  A 0.95 0.94 8.8 0 1 218.64 154.58
  L 218.26 151.49
  A 0.45 0.45 0.0 0 0 217.52 151.20
  C 214.49 153.88 210.26 154.74 210.39 149.59
  A 1.24 1.24 0.0 0 1 212.42 148.66
  Q 213.22 149.31 214.25 148.95
  A 1.51 1.51 0.0 0 0 214.37 146.14
  L 210.59 144.46
  A 0.49 0.49 0.0 0 0 209.92 144.78
  Q 206.46 157.82 199.87 169.58
  A 0.75 0.75 0.0 0 0 200.83 170.63
  L 202.97 169.68
  Q 203.52 169.43 204.06 169.70
  L 214.18 174.72
  Q 214.75 175.01 214.85 175.63
  L 215.13 177.32
  A 1.21 1.21 0.0 0 0 217.42 177.62
  L 220.53 170.80
  A 0.85 0.85 0.0 0 0 219.06 169.97
  Q 218.00 171.52 215.86 170.99"
/>
<path stroke="#959087" vector-effect="non-scaling-stroke" d="
  M 85.68 161.27
  C 86.85 161.06 87.79 162.16 88.87 162.40
  Q 94.35 163.64 98.03 159.51
  A 0.82 0.81 -47.6 0 0 97.98 158.38
  L 83.86 145.21
  A 0.56 0.55 -64.0 0 0 82.93 145.53
  L 76.32 188.58
  A 0.76 0.76 0.0 0 0 76.84 189.42
  Q 91.73 194.27 106.98 197.81
  C 114.84 199.63 121.84 200.29 130.02 198.39
  Q 148.73 194.04 167.39 189.51
  A 0.51 0.51 0.0 0 0 167.77 188.95
  L 161.47 145.55
  Q 161.36 144.82 160.90 145.39
  L 148.15 161.21
  Q 147.74 161.72 148.36 161.92
  Q 153.11 163.49 157.58 161.29
  A 1.15 1.15 0.0 0 1 158.96 163.08
  C 147.58 176.17 133.70 172.75 116.98 171.23
  C 113.12 170.87 109.26 172.79 105.49 172.82
  Q 93.18 172.92 85.12 162.76
  A 0.93 0.92 65.7 0 1 85.68 161.27"
/>
<path stroke="#959087" vector-effect="non-scaling-stroke" d="
  M 30.01 176.35
  L 29.29 174.89
  Q 29.01 174.32 29.56 174.00
  L 34.08 171.34
  A 0.53 0.53 0.0 0 1 34.86 171.66
  Q 35.34 173.48 37.15 173.94
  A 0.46 0.45 -0.3 0 0 37.71 173.38
  Q 36.78 169.94 39.90 168.55
  Q 40.38 168.34 40.89 168.45
  Q 42.28 168.76 43.01 170.01
  A 1.10 1.09 -22.8 0 1 42.35 171.62
  Q 41.05 171.98 40.77 173.15
  Q 40.62 173.82 41.23 174.12
  L 42.82 174.91
  Q 43.22 175.11 43.20 175.56
  Q 42.89 181.91 40.83 187.81
  A 1.61 1.61 0.0 0 1 37.87 187.99
  L 37.13 186.49
  A 0.84 0.82 57.9 0 1 37.35 185.47
  L 38.92 184.24
  Q 39.45 183.82 39.16 183.21
  L 38.19 181.19
  A 0.57 0.56 57.8 0 0 37.32 180.99
  L 33.10 184.46
  Q 32.72 184.77 33.00 185.17
  Q 34.94 188.00 37.07 190.70
  C 41.40 196.18 44.77 189.20 45.13 185.42
  Q 45.45 182.10 46.37 178.91
  A 1.41 1.40 81.0 0 1 46.91 178.16
  Q 48.26 177.23 49.30 178.45
  A 1.12 1.12 0.0 0 1 49.48 179.60
  L 48.21 182.65
  A 1.44 1.44 0.0 0 0 50.41 184.35
  L 53.42 182.07
  Q 53.93 181.69 53.61 181.14
  Q 51.69 177.85 48.94 175.23
  C 45.51 171.96 43.53 165.67 41.59 161.28
  A 0.61 0.61 0.0 0 0 40.47 161.30
  L 39.35 164.03
  Q 39.21 164.38 38.88 164.55
  C 36.19 165.92 26.78 172.14 24.81 167.91
  A 1.89 1.88 44.8 0 1 24.80 166.33
  Q 26.42 162.77 29.62 160.49
  Q 30.08 160.16 30.61 160.38
  L 33.72 161.69
  Q 34.01 161.81 34.33 161.75
  C 41.67 160.23 37.60 149.70 34.94 145.74
  A 0.82 0.82 0.0 0 0 33.45 146.33
  L 33.71 147.93
  A 0.69 0.69 0.0 0 1 33.27 148.69
  L 21.41 153.12
  A 0.67 0.66 -34.8 0 1 20.76 153.01
  L 17.93 150.68
  A 0.42 0.42 0.0 0 0 17.27 151.14
  L 20.25 159.86
  A 0.74 0.74 0.0 0 0 21.66 159.85
  Q 22.96 155.74 27.27 155.69
  A 0.81 0.81 0.0 0 1 27.80 157.12
  C 26.27 158.41 21.16 162.31 22.09 164.46
  Q 25.75 172.86 29.79 181.12
  Q 30.11 181.78 30.73 181.39
  L 35.44 178.40
  A 0.69 0.68 49.3 0 0 35.52 177.31
  Q 33.84 175.81 31.70 176.91
  A 1.25 1.25 0.0 0 1 30.01 176.35"
/>
<path stroke="#959087" vector-effect="non-scaling-stroke" d="
  M 122.71 162.91
  C 130.35 174.68 145.44 173.66 154.93 164.93
  Q 155.53 164.38 154.71 164.42
  C 150.42 164.61 147.98 163.30 144.78 160.08
  C 138.75 154.01 131.21 148.38 122.27 151.00
  A 1.57 1.57 0.0 0 1 121.28 150.97
  C 112.76 147.73 103.86 155.01 98.63 160.94
  Q 94.92 165.14 89.41 164.03
  A 0.51 0.51 0.0 0 0 88.98 164.93
  Q 106.72 179.64 121.85 162.85
  A 0.54 0.54 0.0 0 1 122.71 162.91"
/>
<path stroke="#959087" vector-effect="non-scaling-stroke" d="
  M 188.63 187.94
  Q 190.64 187.11 191.90 189.03
  A 0.60 0.60 0.0 0 0 192.86 189.09
  L 194.40 187.27
  A 0.75 0.75 0.0 0 0 194.36 186.27
  L 192.39 184.25
  A 1.18 1.18 0.0 0 1 193.10 182.25
  C 196.60 181.86 201.20 188.29 203.05 190.84
  C 203.91 192.02 203.86 193.25 204.26 194.62
  A 0.60 0.60 0.0 0 0 205.33 194.80
  L 214.66 181.90
  A 0.51 0.51 0.0 0 0 214.33 181.10
  C 211.07 180.55 198.53 177.77 198.75 173.30
  A 0.83 0.83 0.0 0 0 197.19 172.86
  Q 193.26 180.00 187.40 185.77
  Q 184.98 188.15 184.67 189.99
  C 183.67 195.74 191.59 203.44 197.20 202.07
  C 201.60 200.99 203.34 195.56 200.02 192.27
  Q 199.67 191.93 199.21 192.08
  C 196.25 193.07 198.43 195.40 198.98 196.97
  Q 199.15 197.47 198.77 197.85
  L 197.01 199.62
  Q 196.52 200.10 196.03 199.62
  L 187.92 191.57
  A 2.23 2.22 56.1 0 1 188.63 187.94"
/>
<path stroke="#959087" vector-effect="non-scaling-stroke" d="
  M 97.40 220.66
  L 98.93 229.08
  Q 99.04 229.69 99.65 229.82
  L 104.20 230.85
  A 0.40 0.40 0.0 0 0 104.59 230.20
  Q 101.28 226.31 101.22 221.14
  A 0.87 0.86 80.6 0 1 101.80 220.32
  C 107.15 218.49 106.19 212.82 101.56 211.32
  C 89.85 207.51 80.07 203.43 70.23 196.56
  C 65.18 193.03 60.38 188.10 55.60 183.67
  Q 55.19 183.30 54.74 183.62
  Q 52.01 185.54 51.22 188.83
  Q 51.02 189.67 51.87 189.56
  L 53.41 189.37
  A 1.22 1.20 -78.2 0 0 54.28 188.79
  L 55.34 186.98
  Q 55.67 186.41 56.12 186.90
  C 58.65 189.70 50.50 196.49 48.52 198.15
  A 1.19 1.16 -59.7 0 1 47.57 198.41
  L 44.33 197.83
  A 0.40 0.40 0.0 0 0 43.97 198.50
  L 50.39 205.34
  A 0.73 0.73 0.0 0 0 51.63 205.04
  Q 52.02 203.66 51.33 202.46
  A 1.24 1.23 -39.5 0 1 51.47 201.02
  C 53.40 198.84 59.87 190.42 62.74 192.53
  Q 63.15 192.82 62.80 193.18
  C 61.89 194.15 59.08 196.43 60.33 197.89
  A 1.18 1.18 0.0 0 0 62.01 198.01
  L 64.93 195.44
  A 1.31 1.31 0.0 0 1 67.07 196.74
  C 66.16 200.42 58.91 206.78 55.16 207.19
  A 0.85 0.84 -30.5 0 0 54.76 208.72
  L 67.89 217.98
  A 0.55 0.54 12.4 0 0 68.74 217.44
  C 68.31 214.91 68.05 213.87 69.17 211.47
  Q 71.21 207.12 73.05 202.61
  A 0.71 0.71 0.0 0 1 73.86 202.19
  Q 75.94 202.66 76.91 204.56
  A 1.03 1.02 43.4 0 1 76.94 205.45
  Q 74.67 210.63 72.41 215.83
  C 70.22 220.87 79.24 224.99 82.99 221.60
  C 85.58 219.26 87.27 213.83 88.52 210.50
  Q 88.73 209.94 89.33 210.00
  Q 91.36 210.20 93.02 211.46
  Q 93.44 211.78 93.31 212.29
  Q 91.87 218.14 90.45 223.99
  Q 90.32 224.55 89.76 224.69
  L 88.29 225.06
  A 1.07 1.07 0.0 0 0 88.30 227.13
  L 95.74 228.96
  A 0.60 0.60 0.0 0 0 96.44 228.16
  Q 95.98 227.01 94.85 226.30
  Q 94.35 225.98 94.51 225.41
  L 95.83 220.59
  A 0.81 0.81 0.0 0 1 97.40 220.66"
/>
<path stroke="#959087" vector-effect="non-scaling-stroke" d="
  M 177.61 209.13
  L 174.55 206.93
  A 0.92 0.91 26.8 0 1 174.21 205.91
  C 174.69 204.34 175.74 202.69 175.33 201.15
  C 173.90 195.75 159.54 203.35 169.07 207.97
  A 0.80 0.80 0.0 0 1 169.53 208.74
  C 169.43 210.46 168.82 212.13 169.17 213.72
  C 170.40 219.33 175.14 219.07 179.28 216.52
  C 181.66 215.05 187.11 212.32 185.60 210.64
  Q 185.34 210.36 184.98 210.49
  L 182.84 211.28
  A 0.54 0.53 68.4 0 1 182.16 210.98
  Q 180.62 207.33 181.06 203.40
  A 0.63 0.62 -88.8 0 0 180.41 202.71
  Q 177.79 202.84 176.75 205.27
  A 0.65 0.65 0.0 0 0 176.94 206.03
  Q 178.26 207.10 178.29 208.77
  Q 178.31 209.63 177.61 209.13"
/>
<path stroke="#959087" vector-effect="non-scaling-stroke" d="
  M 130.75 219.99
  A 0.55 0.54 28.8 0 1 131.79 219.69
  C 132.98 222.41 137.50 231.86 141.17 231.30
  A 0.64 0.63 -9.4 0 0 141.70 230.57
  Q 140.42 222.59 140.74 214.53
  A 1.07 1.07 0.0 0 1 142.82 214.24
  L 143.98 217.81
  A 1.03 1.03 0.0 0 0 145.62 218.28
  Q 147.73 216.54 145.71 214.25
  A 0.68 0.67 -38.5 0 1 145.83 213.25
  L 146.68 212.63
  A 1.02 1.02 0.0 0 1 148.23 213.09
  Q 150.13 218.08 152.03 222.98
  C 152.90 225.22 152.21 226.38 150.77 228.01
  A 0.51 0.50 -79.3 0 0 151.32 228.82
  L 160.12 225.66
  A 0.57 0.57 0.0 0 0 159.88 224.56
  Q 157.21 224.79 156.14 222.20
  Q 154.10 217.27 152.19 212.27
  Q 151.52 210.52 153.51 210.09
  Q 154.18 209.95 154.41 210.59
  C 154.85 211.78 156.10 215.50 158.06 213.29
  A 1.38 1.37 53.8 0 0 158.28 211.82
  L 156.26 207.40
  A 0.95 0.94 64.2 0 0 154.97 206.95
  Q 145.56 211.81 134.95 212.26
  A 0.69 0.69 0.0 0 0 134.48 213.43
  Q 137.73 216.89 137.50 221.75
  Q 137.44 222.84 136.86 221.92
  L 131.44 213.36
  Q 131.14 212.89 130.59 212.96
  L 124.85 213.70
  A 0.51 0.51 0.0 0 0 124.56 214.57
  Q 125.47 215.47 126.63 216.03
  Q 127.17 216.29 127.23 216.89
  L 128.41 228.63
  Q 128.45 229.04 128.21 229.36
  L 126.45 231.70
  A 0.59 0.59 0.0 0 0 127.01 232.64
  L 134.21 231.60
  A 0.57 0.57 0.0 0 0 134.45 230.57
  L 132.61 229.34
  Q 132.19 229.05 132.11 228.56
  L 130.75 219.99"
/>
<path stroke="#959087" vector-effect="non-scaling-stroke" d="
  M 122.45 229.98
  A 1.74 1.73 -79.8 0 1 121.53 228.65
  C 121.13 225.10 118.83 216.80 122.25 214.41
  A 0.49 0.49 0.0 0 0 122.00 213.52
  L 110.92 212.76
  Q 110.11 212.71 110.46 213.45
  Q 110.84 214.23 111.65 214.56
  A 1.49 1.48 16.5 0 1 112.54 216.19
  Q 111.17 223.84 107.21 230.50
  A 0.70 0.69 -72.8 0 0 107.76 231.55
  L 122.98 232.56
  Q 124.21 232.64 123.79 231.48
  Q 123.43 230.49 122.45 229.98"
/>
<path stroke="#959087" vector-effect="non-scaling-stroke" d="
  M 137.29 27.17
  A 0.35 0.34 -6.2 0 0 137.64 26.74
  L 136.63 22.77
  A 0.55 0.55 0.0 0 0 135.63 22.60
  L 133.15 26.34
  Q 132.78 26.90 133.45 26.94
  L 137.29 27.17"
/>
<path stroke="#959087" vector-effect="non-scaling-stroke" d="
  M 183.1590 40.7915
  A 1.14 1.14 0.0 0 0 182.9542 39.1923
  L 179.5519 36.5628
  A 1.14 1.14 0.0 0 0 177.9528 36.7676
  L 176.9010 38.1285
  A 1.14 1.14 0.0 0 0 177.1058 39.7277
  L 180.5081 42.3572
  A 1.14 1.14 0.0 0 0 182.1072 42.1524
  L 183.1590 40.7915"
/>
<path stroke="#959087" vector-effect="non-scaling-stroke" d="
  M 93.77 81.75
  A 2.08 2.08 0.0 0 0 91.69 79.67
  A 2.08 2.08 0.0 0 0 89.61 81.75
  A 2.08 2.08 0.0 0 0 91.69 83.83
  A 2.08 2.08 0.0 0 0 93.77 81.75"
/>
<path stroke="#959087" vector-effect="non-scaling-stroke" d="
  M 154.87 81.94
  A 2.26 2.26 0.0 0 0 152.61 79.68
  A 2.26 2.26 0.0 0 0 150.35 81.94
  A 2.26 2.26 0.0 0 0 152.61 84.20
  A 2.26 2.26 0.0 0 0 154.87 81.94"
/>
<path stroke="#959087" vector-effect="non-scaling-stroke" d="
  M 206.38 71.73
  A 0.59 0.59 0.0 0 0 205.85 72.57
  L 207.24 75.57
  A 0.59 0.59 0.0 0 0 208.23 75.70
  L 210.80 72.68
  A 0.59 0.59 0.0 0 0 210.34 71.71
  L 206.38 71.73"
/>
<path stroke="#959087" vector-effect="non-scaling-stroke" d="
  M 34.32 152.57
  L 30.74 153.92
  A 0.92 0.92 0.0 0 0 30.21 155.11
  L 30.27 155.28
  A 3.54 2.74 69.3 0 0 34.09 157.62
  L 34.25 157.56
  A 3.54 2.74 69.3 0 0 35.57 153.28
  L 35.50 153.11
  A 0.92 0.92 0.0 0 0 34.32 152.57"
/>
<path stroke="#959087" vector-effect="non-scaling-stroke" d="
  M 203.16 181.30
  Q 200.09 179.43 196.76 178.06
  A 0.48 0.47 79.1 0 0 196.24 178.83
  Q 198.77 181.48 201.68 183.69
  Q 202.29 184.16 202.68 183.49
  L 203.40 182.26
  A 0.71 0.70 -59.2 0 0 203.16 181.30"
/>
<path stroke="#959087" vector-effect="non-scaling-stroke" d="
  M 209.25 185.72
  A 2.38 2.38 0.0 0 0 206.87 183.34
  A 2.38 2.38 0.0 0 0 204.49 185.72
  A 2.38 2.38 0.0 0 0 206.87 188.10
  A 2.38 2.38 0.0 0 0 209.25 185.72"
/>
<path stroke="#959087" vector-effect="non-scaling-stroke" d="
  M 65.21 205.53
  L 66.59 206.54
  A 0.43 0.43 0.0 0 0 67.19 206.44
  L 67.27 206.33
  A 7.25 1.17 -53.8 0 0 70.61 199.79
  L 70.43 199.66
  A 7.25 1.17 -53.8 0 0 65.20 204.82
  L 65.12 204.93
  A 0.43 0.43 0.0 0 0 65.21 205.53"
/>
<path stroke="#959087" vector-effect="non-scaling-stroke" d="
  M 85.3605 208.9831
  A 2.36 2.36 0.0 0 0 84.1644 205.8673
  L 84.0183 205.8022
  A 2.36 2.36 0.0 0 0 80.9024 206.9982
  L 76.3795 217.1569
  A 2.36 2.36 0.0 0 0 77.5756 220.2727
  L 77.7217 220.3378
  A 2.36 2.36 0.0 0 0 80.8376 219.1418
  L 85.3605 208.9831"
/>
<path stroke="#959087" vector-effect="non-scaling-stroke" d="
  M 65.82 209.67
  A 2.39 2.39 0.0 0 0 63.43 207.28
  A 2.39 2.39 0.0 0 0 61.04 209.67
  A 2.39 2.39 0.0 0 0 63.43 212.06
  A 2.39 2.39 0.0 0 0 65.82 209.67"
/>
<path stroke="#959087" vector-effect="non-scaling-stroke" d="
  M 96.72 213.37
  L 96.29 217.01
  A 1.10 1.10 0.0 0 0 97.26 218.23
  L 97.44 218.25
  A 3.56 2.76 6.7 0 0 101.29 215.92
  L 101.33 215.58
  A 3.56 2.76 6.7 0 0 98.12 212.43
  L 97.94 212.41
  A 1.10 1.10 0.0 0 0 96.72 213.37"
/>
<path stroke="#959087" vector-effect="non-scaling-stroke" d="
  M 169.7911 204.8023
  A 1.48 1.28 125.0 0 0 171.6885 204.3242
  A 1.48 1.28 125.0 0 0 171.4889 202.3777
  A 1.48 1.28 125.0 0 0 169.5915 202.8558
  A 1.48 1.28 125.0 0 0 169.7911 204.8023"
/>
<path stroke="#959087" vector-effect="non-scaling-stroke" d="
  M 178.72 213.00
  L 172.58 209.89
  A 0.21 0.21 0.0 0 0 172.29 209.99
  L 172.25 210.08
  A 3.45 3.31 26.8 0 0 173.84 214.59
  L 174.19 214.77
  A 3.45 3.31 26.8 0 0 178.76 213.37
  L 178.81 213.28
  A 0.21 0.21 0.0 0 0 178.72 213.00"
/>
<path stroke="#959087" vector-effect="non-scaling-stroke" d="
  M 116.70 223.00
  L 117.29 216.30
  A 0.28 0.28 0.0 0 0 117.04 216.00
  L 116.91 215.99
  A 2.09 1.87 -84.9 0 0 114.86 217.90
  L 114.59 220.99
  A 2.09 1.87 -84.9 0 0 116.26 223.24
  L 116.39 223.25
  A 0.28 0.28 0.0 0 0 116.70 223.00"
/>
<path stroke="#959087" vector-effect="non-scaling-stroke" d="
  M 115.3196 230.5945
  A 2.64 2.16 93.7 0 0 117.6455 228.0994
  A 2.64 2.16 93.7 0 0 115.6604 225.3255
  A 2.64 2.16 93.7 0 0 113.3345 227.8206
  A 2.64 2.16 93.7 0 0 115.3196 230.5945"
/>
</g>
<path fill="#3a3935" d="
  M 242.85 123.80
  A 120.19 120.19 0.0 0 1 122.66 243.99
  A 120.19 120.19 0.0 0 1 2.47 123.80
  A 120.19 120.19 0.0 0 1 122.66 3.61
  A 120.19 120.19 0.0 0 1 242.85 123.80
  Z
  M 238.03 123.80
  A 115.37 115.37 0.0 0 0 122.66 8.43
  A 115.37 115.37 0.0 0 0 7.29 123.80
  A 115.37 115.37 0.0 0 0 122.66 239.17
  A 115.37 115.37 0.0 0 0 238.03 123.80
  Z"
/>
<path fill="#f0e6d9" d="
  M 238.03 123.80
  A 115.37 115.37 0.0 0 1 122.66 239.17
  A 115.37 115.37 0.0 0 1 7.29 123.80
  A 115.37 115.37 0.0 0 1 122.66 8.43
  A 115.37 115.37 0.0 0 1 238.03 123.80
  Z
  M 88.33 34.57
  L 83.59 28.89
  Q 83.20 28.43 83.53 27.91
  Q 84.75 25.96 83.96 23.69
  A 1.69 1.69 0.0 0 0 81.87 22.64
  L 69.38 26.55
  A 0.81 0.80 -7.4 0 0 68.82 27.27
  Q 68.61 30.94 72.22 31.69
  Q 72.65 31.78 72.96 32.09
  L 84.06 43.18
  A 1.53 1.53 0.0 0 0 85.59 43.56
  C 87.59 42.94 94.04 42.11 94.24 39.48
  Q 94.51 35.80 95.33 32.85
  A 0.46 0.45 -57.8 0 1 96.11 32.67
  L 101.27 38.45
  A 0.84 0.84 0.0 0 0 102.15 38.70
  L 110.22 36.15
  Q 110.75 35.99 110.86 35.44
  C 112.01 29.74 112.56 21.73 115.72 16.87
  Q 115.99 16.46 115.94 15.96
  C 115.46 11.11 107.14 15.03 104.17 16.13
  Q 103.68 16.31 103.55 16.81
  C 102.93 19.05 104.97 19.93 106.38 21.05
  Q 106.80 21.38 106.74 21.92
  L 106.07 28.84
  A 0.71 0.70 -63.5 0 1 104.85 29.25
  L 99.83 23.88
  Q 99.42 23.45 99.76 22.96
  Q 100.97 21.15 100.18 19.08
  A 1.85 1.85 0.0 0 0 97.95 17.97
  L 87.74 20.87
  Q 87.21 21.02 87.22 21.57
  Q 87.23 24.49 89.80 25.86
  A 0.83 0.82 -72.1 0 1 90.22 26.69
  L 89.20 34.32
  A 0.49 0.49 0.0 0 1 88.33 34.57
  Z
  M 130.59 29.34
  L 138.89 30.45
  A 0.96 0.96 0.0 0 1 139.22 32.24
  C 137.38 33.24 134.02 37.15 138.57 37.65
  Q 144.60 38.32 150.60 39.34
  A 1.08 1.08 0.0 0 0 151.47 39.10
  C 153.22 37.58 152.70 34.87 150.64 33.79
  Q 150.22 33.57 150.06 33.12
  L 146.83 24.06
  A 0.77 0.77 0.0 0 1 147.22 23.10
  Q 149.77 21.84 149.20 18.83
  A 1.25 1.24 88.6 0 0 148.17 17.84
  L 129.13 15.07
  A 1.39 1.39 0.0 0 0 127.57 16.17
  Q 127.08 18.58 128.59 20.40
  A 0.68 0.67 -51.3 0 1 128.67 21.16
  Q 125.32 27.49 119.53 31.81
  A 1.70 1.70 0.0 0 0 120.29 34.86
  L 130.66 36.44
  Q 131.22 36.53 131.36 35.98
  Q 132.14 32.78 130.04 30.37
  A 0.63 0.62 73.3 0 1 130.59 29.34
  Z
  M 177.64 54.23
  C 177.83 56.24 184.87 60.45 185.66 61.01
  Q 186.20 61.40 186.67 60.92
  L 188.96 58.56
  Q 189.21 58.30 189.01 58.01
  Q 186.82 54.73 187.02 50.80
  Q 187.05 50.21 187.64 50.24
  C 191.93 50.49 195.31 48.08 192.94 43.55
  C 188.90 35.84 177.48 28.84 169.88 24.69
  A 1.51 1.51 0.0 0 0 167.67 26.28
  C 168.58 31.46 165.81 33.85 163.03 37.59
  A 0.88 0.87 -67.7 0 1 162.21 37.94
  Q 158.65 37.45 158.22 40.92
  Q 158.14 41.53 158.64 41.88
  L 169.87 49.88
  A 1.62 1.61 -70.5 0 0 172.41 48.66
  L 172.74 43.76
  Q 172.78 43.07 173.44 42.89
  C 178.19 41.57 177.39 51.53 177.64 54.23
  Z
  M 62.37 53.18
  C 57.38 50.45 55.62 47.01 54.10 42.36
  A 1.50 1.50 0.0 0 0 51.68 41.71
  L 41.37 50.91
  Q 40.83 51.40 41.25 51.99
  Q 42.95 54.43 46.06 54.38
  Q 46.59 54.37 46.95 54.77
  C 50.67 58.93 55.74 64.56 61.84 60.61
  Q 66.15 57.83 69.30 53.78
  C 74.35 47.31 70.43 42.24 65.50 37.77
  Q 65.08 37.40 65.25 36.86
  Q 66.23 33.76 63.87 31.80
  A 0.80 0.79 44.1 0 0 62.83 31.81
  L 55.16 38.59
  A 0.63 0.63 0.0 0 0 55.17 39.54
  C 57.35 41.45 71.21 49.51 63.11 53.21
  Q 62.73 53.38 62.37 53.18
  Z
  M 169.66 58.80
  C 139.85 37.97 101.02 38.43 72.26 61.74
  Q 71.83 62.08 72.19 62.50
  L 74.28 64.96
  Q 74.69 65.45 75.19 65.05
  C 102.83 43.13 139.92 42.72 168.30 63.51
  A 0.62 0.62 0.0 0 0 169.17 63.38
  L 171.09 60.72
  A 0.58 0.57 41.6 0 0 171.04 59.99
  Q 170.36 59.28 169.66 58.80
  Z
  M 121.30 51.68
  C 117.51 66.20 101.89 70.33 91.26 60.19
  A 0.64 0.64 0.0 0 0 90.22 60.44
  Q 83.31 80.03 63.45 72.21
  Q 62.71 71.92 63.13 72.59
  L 82.15 103.32
  A 1.53 1.52 -23.6 0 0 83.86 103.98
  C 110.06 96.70 134.29 96.16 160.21 104.26
  A 1.44 1.44 0.0 0 0 161.86 103.65
  L 181.49 72.33
  A 0.28 0.28 0.0 0 0 181.13 71.93
  C 168.27 77.72 159.33 73.84 154.05 61.09
  Q 153.82 60.53 153.31 60.86
  C 139.99 69.48 128.45 66.68 122.09 51.62
  A 0.42 0.42 0.0 0 0 121.30 51.68
  Z
  M 32.42 80.94
  C 41.15 79.01 50.60 78.11 53.62 68.09
  Q 53.78 67.54 53.29 67.26
  L 41.18 60.39
  A 0.87 0.87 0.0 0 1 40.75 59.56
  Q 41.11 55.98 37.60 55.32
  Q 37.07 55.22 36.76 55.66
  C 34.99 58.20 33.59 60.96 31.91 63.56
  C 30.05 66.45 34.46 67.67 36.80 66.43
  A 0.94 0.93 -43.3 0 1 37.72 66.45
  L 40.53 68.13
  A 0.55 0.54 -38.1 0 1 40.41 69.12
  C 38.36 69.75 27.14 72.36 26.41 73.66
  Q 23.60 78.70 20.52 83.96
  A 1.84 1.83 -59.0 0 0 21.13 86.44
  C 23.12 87.69 24.04 86.54 25.94 86.25
  Q 26.54 86.16 27.06 86.46
  L 34.04 90.56
  A 0.82 0.82 0.0 0 1 34.43 91.41
  Q 33.89 94.60 37.29 95.53
  Q 37.78 95.66 38.04 95.23
  Q 40.94 90.60 43.60 85.81
  Q 43.92 85.23 43.36 84.89
  L 40.33 83.02
  Q 39.76 82.68 39.38 83.21
  L 38.59 84.30
  A 0.67 0.67 0.0 0 1 37.75 84.51
  L 32.32 81.77
  A 0.44 0.44 0.0 0 1 32.42 80.94
  Z
  M 200.67 71.57
  A 0.65 0.65 0.0 0 1 201.87 71.41
  L 206.12 79.18
  A 0.61 0.61 0.0 0 1 205.44 80.07
  Q 202.43 79.35 199.70 80.75
  Q 199.17 81.03 199.46 81.56
  L 206.23 93.98
  Q 206.46 94.41 206.95 94.40
  Q 210.80 94.27 210.54 90.36
  Q 210.50 89.82 210.81 89.36
  L 216.13 81.30
  Q 216.46 80.80 217.01 81.04
  Q 219.73 82.23 221.72 80.11
  A 1.00 0.99 52.1 0 0 221.86 78.94
  L 212.41 61.94
  A 1.40 1.39 61.8 0 0 210.55 61.37
  Q 208.30 62.51 207.94 64.92
  Q 207.85 65.50 207.27 65.50
  L 197.42 65.50
  Q 196.91 65.50 196.49 65.21
  Q 193.96 63.49 192.06 65.80
  A 1.13 1.11 58.9 0 0 191.83 66.76
  C 192.42 69.37 197.99 82.61 200.67 71.57
  Z
  M 175.46 182.95
  A 0.94 0.93 47.5 0 0 176.80 183.01
  C 204.74 156.72 210.58 117.24 192.08 83.65
  Q 191.61 82.79 190.85 83.41
  L 188.47 85.39
  Q 187.99 85.78 188.29 86.31
  C 204.11 114.53 200.94 147.82 180.23 172.71
  Q 178.29 175.04 173.55 179.95
  Q 173.15 180.35 173.53 180.78
  L 175.46 182.95
  Z
  M 55.87 86.15
  L 53.45 84.67
  Q 52.96 84.37 52.68 84.87
  C 35.14 116.23 40.92 154.08 65.49 179.88
  Q 65.87 180.27 66.25 179.88
  L 68.68 177.42
  Q 68.99 177.11 68.69 176.80
  C 45.98 152.54 39.91 116.99 56.27 87.67
  Q 56.80 86.72 55.87 86.15
  Z
  M 160.74 106.81
  Q 144.23 100.86 127.00 100.28
  Q 125.44 100.23 124.56 100.78
  A 0.93 0.93 0.0 0 0 124.78 102.45
  Q 127.12 103.18 130.05 103.50
  C 150.23 105.68 156.56 119.81 160.90 137.28
  A 0.18 0.18 0.0 0 0 161.25 137.24
  L 161.25 107.53
  A 0.76 0.76 0.0 0 0 160.74 106.81
  Z
  M 82.83 108.03
  Q 82.54 122.72 83.00 137.41
  A 0.23 0.23 0.0 0 0 83.45 137.46
  Q 85.21 131.19 87.13 125.23
  C 91.06 113.06 100.13 105.22 112.69 103.56
  C 114.33 103.34 119.62 103.27 120.26 101.45
  A 0.59 0.59 0.0 0 0 119.70 100.67
  Q 101.25 100.65 83.81 106.67
  A 1.47 1.47 0.0 0 0 82.83 108.03
  Z
  M 124.84 110.23
  A 2.63 2.63 0.0 0 0 122.21 107.60
  A 2.63 2.63 0.0 0 0 119.58 110.23
  A 2.63 2.63 0.0 0 0 122.21 112.86
  A 2.63 2.63 0.0 0 0 124.84 110.23
  Z
  M 19.36 127.96
  L 25.67 112.95
  A 0.15 0.15 0.0 0 0 25.59 112.76
  L 25.50 112.72
  A 8.18 7.01 -67.2 0 0 15.87 117.54
  L 15.78 117.74
  A 8.18 7.01 -67.2 0 0 19.07 128.00
  L 19.17 128.04
  A 0.15 0.15 0.0 0 0 19.36 127.96
  Z
  M 217.40 129.09
  A 0.67 0.66 -66.1 0 0 218.47 128.67
  L 221.11 113.07
  A 0.51 0.51 0.0 0 0 220.58 112.47
  C 210.67 113.02 210.56 123.73 217.40 129.09
  Z
  M 223.74 113.02
  L 221.16 129.12
  A 0.12 0.12 0.0 0 0 221.26 129.25
  L 221.27 129.26
  A 8.12 7.33 -80.9 0 0 229.79 122.40
  L 229.84 122.10
  A 8.12 7.33 -80.9 0 0 223.88 112.92
  L 223.87 112.92
  A 0.12 0.12 0.0 0 0 223.74 113.02
  Z
  M 28.28 113.94
  L 21.97 129.01
  A 0.13 0.13 0.0 0 0 22.04 129.18
  L 22.11 129.22
  A 8.14 6.85 -67.3 0 0 31.57 124.35
  L 31.70 124.05
  A 8.14 6.85 -67.3 0 0 28.52 113.90
  L 28.45 113.87
  A 0.13 0.13 0.0 0 0 28.28 113.94
  Z
  M 128.20 122.26
  L 128.27 125.06
  A 0.26 0.26 0.0 0 0 128.53 125.31
  L 128.67 125.31
  A 14.86 1.60 -1.4 0 0 143.49 123.34
  L 143.49 123.22
  A 14.86 1.60 -1.4 0 0 128.59 121.99
  L 128.45 121.99
  A 0.26 0.26 0.0 0 0 128.20 122.26
  Z
  M 117.59 124.89
  L 117.64 122.53
  A 0.25 0.25 0.0 0 0 117.40 122.28
  L 117.27 122.27
  A 15.60 1.38 1.3 0 0 101.64 123.30
  L 101.64 123.40
  A 15.60 1.38 1.3 0 0 117.21 125.13
  L 117.34 125.14
  A 0.25 0.25 0.0 0 0 117.59 124.89
  Z
  M 115.77 130.36
  C 110.67 128.44 100.70 126.93 97.07 131.97
  Q 96.74 132.44 97.28 132.62
  C 103.26 134.64 110.55 137.03 115.69 131.81
  C 115.87 131.62 116.52 131.34 116.33 130.90
  A 1.02 0.99 88.2 0 0 115.77 130.36
  Z
  M 147.67 132.36
  C 147.78 126.39 132.39 129.35 129.43 130.50
  A 0.78 0.77 -29.8 0 0 129.10 131.71
  C 133.57 137.33 141.26 134.22 147.14 132.99
  A 0.67 0.65 -5.6 0 0 147.67 132.36
  Z
  M 215.86 170.99
  Q 211.69 169.97 212.55 165.68
  A 0.44 0.43 79.4 0 0 211.89 165.22
  Q 210.52 166.10 209.54 167.43
  Q 209.25 167.83 208.82 167.58
  L 205.71 165.78
  A 1.91 1.91 0.0 0 1 207.56 162.43
  Q 209.56 163.48 210.52 161.53
  Q 210.78 161.01 210.40 160.57
  C 209.46 159.52 206.06 158.25 208.57 156.37
  A 0.82 0.79 -53.4 0 1 209.30 156.25
  L 221.40 160.11
  A 0.94 0.93 3.4 0 1 222.02 160.80
  L 222.40 162.64
  A 0.92 0.91 48.5 0 0 224.16 162.75
  L 227.91 151.51
  A 1.24 1.24 0.0 0 0 226.98 149.90
  L 223.42 149.17
  A 1.45 1.45 0.0 0 0 222.32 151.79
  L 224.23 153.07
  A 1.71 1.70 61.9 0 1 223.28 156.19
  Q 221.11 156.19 219.20 155.34
  A 0.95 0.94 8.8 0 1 218.64 154.58
  L 218.26 151.49
  A 0.45 0.45 0.0 0 0 217.52 151.20
  C 214.49 153.88 210.26 154.74 210.39 149.59
  A 1.24 1.24 0.0 0 1 212.42 148.66
  Q 213.22 149.31 214.25 148.95
  A 1.51 1.51 0.0 0 0 214.37 146.14
  L 210.59 144.46
  A 0.49 0.49 0.0 0 0 209.92 144.78
  Q 206.46 157.82 199.87 169.58
  A 0.75 0.75 0.0 0 0 200.83 170.63
  L 202.97 169.68
  Q 203.52 169.43 204.06 169.70
  L 214.18 174.72
  Q 214.75 175.01 214.85 175.63
  L 215.13 177.32
  A 1.21 1.21 0.0 0 0 217.42 177.62
  L 220.53 170.80
  A 0.85 0.85 0.0 0 0 219.06 169.97
  Q 218.00 171.52 215.86 170.99
  Z
  M 85.68 161.27
  C 86.85 161.06 87.79 162.16 88.87 162.40
  Q 94.35 163.64 98.03 159.51
  A 0.82 0.81 -47.6 0 0 97.98 158.38
  L 83.86 145.21
  A 0.56 0.55 -64.0 0 0 82.93 145.53
  L 76.32 188.58
  A 0.76 0.76 0.0 0 0 76.84 189.42
  Q 91.73 194.27 106.98 197.81
  C 114.84 199.63 121.84 200.29 130.02 198.39
  Q 148.73 194.04 167.39 189.51
  A 0.51 0.51 0.0 0 0 167.77 188.95
  L 161.47 145.55
  Q 161.36 144.82 160.90 145.39
  L 148.15 161.21
  Q 147.74 161.72 148.36 161.92
  Q 153.11 163.49 157.58 161.29
  A 1.15 1.15 0.0 0 1 158.96 163.08
  C 147.58 176.17 133.70 172.75 116.98 171.23
  C 113.12 170.87 109.26 172.79 105.49 172.82
  Q 93.18 172.92 85.12 162.76
  A 0.93 0.92 65.7 0 1 85.68 161.27
  Z
  M 30.01 176.35
  L 29.29 174.89
  Q 29.01 174.32 29.56 174.00
  L 34.08 171.34
  A 0.53 0.53 0.0 0 1 34.86 171.66
  Q 35.34 173.48 37.15 173.94
  A 0.46 0.45 -0.3 0 0 37.71 173.38
  Q 36.78 169.94 39.90 168.55
  Q 40.38 168.34 40.89 168.45
  Q 42.28 168.76 43.01 170.01
  A 1.10 1.09 -22.8 0 1 42.35 171.62
  Q 41.05 171.98 40.77 173.15
  Q 40.62 173.82 41.23 174.12
  L 42.82 174.91
  Q 43.22 175.11 43.20 175.56
  Q 42.89 181.91 40.83 187.81
  A 1.61 1.61 0.0 0 1 37.87 187.99
  L 37.13 186.49
  A 0.84 0.82 57.9 0 1 37.35 185.47
  L 38.92 184.24
  Q 39.45 183.82 39.16 183.21
  L 38.19 181.19
  A 0.57 0.56 57.8 0 0 37.32 180.99
  L 33.10 184.46
  Q 32.72 184.77 33.00 185.17
  Q 34.94 188.00 37.07 190.70
  C 41.40 196.18 44.77 189.20 45.13 185.42
  Q 45.45 182.10 46.37 178.91
  A 1.41 1.40 81.0 0 1 46.91 178.16
  Q 48.26 177.23 49.30 178.45
  A 1.12 1.12 0.0 0 1 49.48 179.60
  L 48.21 182.65
  A 1.44 1.44 0.0 0 0 50.41 184.35
  L 53.42 182.07
  Q 53.93 181.69 53.61 181.14
  Q 51.69 177.85 48.94 175.23
  C 45.51 171.96 43.53 165.67 41.59 161.28
  A 0.61 0.61 0.0 0 0 40.47 161.30
  L 39.35 164.03
  Q 39.21 164.38 38.88 164.55
  C 36.19 165.92 26.78 172.14 24.81 167.91
  A 1.89 1.88 44.8 0 1 24.80 166.33
  Q 26.42 162.77 29.62 160.49
  Q 30.08 160.16 30.61 160.38
  L 33.72 161.69
  Q 34.01 161.81 34.33 161.75
  C 41.67 160.23 37.60 149.70 34.94 145.74
  A 0.82 0.82 0.0 0 0 33.45 146.33
  L 33.71 147.93
  A 0.69 0.69 0.0 0 1 33.27 148.69
  L 21.41 153.12
  A 0.67 0.66 -34.8 0 1 20.76 153.01
  L 17.93 150.68
  A 0.42 0.42 0.0 0 0 17.27 151.14
  L 20.25 159.86
  A 0.74 0.74 0.0 0 0 21.66 159.85
  Q 22.96 155.74 27.27 155.69
  A 0.81 0.81 0.0 0 1 27.80 157.12
  C 26.27 158.41 21.16 162.31 22.09 164.46
  Q 25.75 172.86 29.79 181.12
  Q 30.11 181.78 30.73 181.39
  L 35.44 178.40
  A 0.69 0.68 49.3 0 0 35.52 177.31
  Q 33.84 175.81 31.70 176.91
  A 1.25 1.25 0.0 0 1 30.01 176.35
  Z
  M 122.71 162.91
  C 130.35 174.68 145.44 173.66 154.93 164.93
  Q 155.53 164.38 154.71 164.42
  C 150.42 164.61 147.98 163.30 144.78 160.08
  C 138.75 154.01 131.21 148.38 122.27 151.00
  A 1.57 1.57 0.0 0 1 121.28 150.97
  C 112.76 147.73 103.86 155.01 98.63 160.94
  Q 94.92 165.14 89.41 164.03
  A 0.51 0.51 0.0 0 0 88.98 164.93
  Q 106.72 179.64 121.85 162.85
  A 0.54 0.54 0.0 0 1 122.71 162.91
  Z
  M 188.63 187.94
  Q 190.64 187.11 191.90 189.03
  A 0.60 0.60 0.0 0 0 192.86 189.09
  L 194.40 187.27
  A 0.75 0.75 0.0 0 0 194.36 186.27
  L 192.39 184.25
  A 1.18 1.18 0.0 0 1 193.10 182.25
  C 196.60 181.86 201.20 188.29 203.05 190.84
  C 203.91 192.02 203.86 193.25 204.26 194.62
  A 0.60 0.60 0.0 0 0 205.33 194.80
  L 214.66 181.90
  A 0.51 0.51 0.0 0 0 214.33 181.10
  C 211.07 180.55 198.53 177.77 198.75 173.30
  A 0.83 0.83 0.0 0 0 197.19 172.86
  Q 193.26 180.00 187.40 185.77
  Q 184.98 188.15 184.67 189.99
  C 183.67 195.74 191.59 203.44 197.20 202.07
  C 201.60 200.99 203.34 195.56 200.02 192.27
  Q 199.67 191.93 199.21 192.08
  C 196.25 193.07 198.43 195.40 198.98 196.97
  Q 199.15 197.47 198.77 197.85
  L 197.01 199.62
  Q 196.52 200.10 196.03 199.62
  L 187.92 191.57
  A 2.23 2.22 56.1 0 1 188.63 187.94
  Z
  M 97.40 220.66
  L 98.93 229.08
  Q 99.04 229.69 99.65 229.82
  L 104.20 230.85
  A 0.40 0.40 0.0 0 0 104.59 230.20
  Q 101.28 226.31 101.22 221.14
  A 0.87 0.86 80.6 0 1 101.80 220.32
  C 107.15 218.49 106.19 212.82 101.56 211.32
  C 89.85 207.51 80.07 203.43 70.23 196.56
  C 65.18 193.03 60.38 188.10 55.60 183.67
  Q 55.19 183.30 54.74 183.62
  Q 52.01 185.54 51.22 188.83
  Q 51.02 189.67 51.87 189.56
  L 53.41 189.37
  A 1.22 1.20 -78.2 0 0 54.28 188.79
  L 55.34 186.98
  Q 55.67 186.41 56.12 186.90
  C 58.65 189.70 50.50 196.49 48.52 198.15
  A 1.19 1.16 -59.7 0 1 47.57 198.41
  L 44.33 197.83
  A 0.40 0.40 0.0 0 0 43.97 198.50
  L 50.39 205.34
  A 0.73 0.73 0.0 0 0 51.63 205.04
  Q 52.02 203.66 51.33 202.46
  A 1.24 1.23 -39.5 0 1 51.47 201.02
  C 53.40 198.84 59.87 190.42 62.74 192.53
  Q 63.15 192.82 62.80 193.18
  C 61.89 194.15 59.08 196.43 60.33 197.89
  A 1.18 1.18 0.0 0 0 62.01 198.01
  L 64.93 195.44
  A 1.31 1.31 0.0 0 1 67.07 196.74
  C 66.16 200.42 58.91 206.78 55.16 207.19
  A 0.85 0.84 -30.5 0 0 54.76 208.72
  L 67.89 217.98
  A 0.55 0.54 12.4 0 0 68.74 217.44
  C 68.31 214.91 68.05 213.87 69.17 211.47
  Q 71.21 207.12 73.05 202.61
  A 0.71 0.71 0.0 0 1 73.86 202.19
  Q 75.94 202.66 76.91 204.56
  A 1.03 1.02 43.4 0 1 76.94 205.45
  Q 74.67 210.63 72.41 215.83
  C 70.22 220.87 79.24 224.99 82.99 221.60
  C 85.58 219.26 87.27 213.83 88.52 210.50
  Q 88.73 209.94 89.33 210.00
  Q 91.36 210.20 93.02 211.46
  Q 93.44 211.78 93.31 212.29
  Q 91.87 218.14 90.45 223.99
  Q 90.32 224.55 89.76 224.69
  L 88.29 225.06
  A 1.07 1.07 0.0 0 0 88.30 227.13
  L 95.74 228.96
  A 0.60 0.60 0.0 0 0 96.44 228.16
  Q 95.98 227.01 94.85 226.30
  Q 94.35 225.98 94.51 225.41
  L 95.83 220.59
  A 0.81 0.81 0.0 0 1 97.40 220.66
  Z
  M 177.61 209.13
  L 174.55 206.93
  A 0.92 0.91 26.8 0 1 174.21 205.91
  C 174.69 204.34 175.74 202.69 175.33 201.15
  C 173.90 195.75 159.54 203.35 169.07 207.97
  A 0.80 0.80 0.0 0 1 169.53 208.74
  C 169.43 210.46 168.82 212.13 169.17 213.72
  C 170.40 219.33 175.14 219.07 179.28 216.52
  C 181.66 215.05 187.11 212.32 185.60 210.64
  Q 185.34 210.36 184.98 210.49
  L 182.84 211.28
  A 0.54 0.53 68.4 0 1 182.16 210.98
  Q 180.62 207.33 181.06 203.40
  A 0.63 0.62 -88.8 0 0 180.41 202.71
  Q 177.79 202.84 176.75 205.27
  A 0.65 0.65 0.0 0 0 176.94 206.03
  Q 178.26 207.10 178.29 208.77
  Q 178.31 209.63 177.61 209.13
  Z
  M 130.75 219.99
  A 0.55 0.54 28.8 0 1 131.79 219.69
  C 132.98 222.41 137.50 231.86 141.17 231.30
  A 0.64 0.63 -9.4 0 0 141.70 230.57
  Q 140.42 222.59 140.74 214.53
  A 1.07 1.07 0.0 0 1 142.82 214.24
  L 143.98 217.81
  A 1.03 1.03 0.0 0 0 145.62 218.28
  Q 147.73 216.54 145.71 214.25
  A 0.68 0.67 -38.5 0 1 145.83 213.25
  L 146.68 212.63
  A 1.02 1.02 0.0 0 1 148.23 213.09
  Q 150.13 218.08 152.03 222.98
  C 152.90 225.22 152.21 226.38 150.77 228.01
  A 0.51 0.50 -79.3 0 0 151.32 228.82
  L 160.12 225.66
  A 0.57 0.57 0.0 0 0 159.88 224.56
  Q 157.21 224.79 156.14 222.20
  Q 154.10 217.27 152.19 212.27
  Q 151.52 210.52 153.51 210.09
  Q 154.18 209.95 154.41 210.59
  C 154.85 211.78 156.10 215.50 158.06 213.29
  A 1.38 1.37 53.8 0 0 158.28 211.82
  L 156.26 207.40
  A 0.95 0.94 64.2 0 0 154.97 206.95
  Q 145.56 211.81 134.95 212.26
  A 0.69 0.69 0.0 0 0 134.48 213.43
  Q 137.73 216.89 137.50 221.75
  Q 137.44 222.84 136.86 221.92
  L 131.44 213.36
  Q 131.14 212.89 130.59 212.96
  L 124.85 213.70
  A 0.51 0.51 0.0 0 0 124.56 214.57
  Q 125.47 215.47 126.63 216.03
  Q 127.17 216.29 127.23 216.89
  L 128.41 228.63
  Q 128.45 229.04 128.21 229.36
  L 126.45 231.70
  A 0.59 0.59 0.0 0 0 127.01 232.64
  L 134.21 231.60
  A 0.57 0.57 0.0 0 0 134.45 230.57
  L 132.61 229.34
  Q 132.19 229.05 132.11 228.56
  L 130.75 219.99
  Z
  M 122.45 229.98
  A 1.74 1.73 -79.8 0 1 121.53 228.65
  C 121.13 225.10 118.83 216.80 122.25 214.41
  A 0.49 0.49 0.0 0 0 122.00 213.52
  L 110.92 212.76
  Q 110.11 212.71 110.46 213.45
  Q 110.84 214.23 111.65 214.56
  A 1.49 1.48 16.5 0 1 112.54 216.19
  Q 111.17 223.84 107.21 230.50
  A 0.70 0.69 -72.8 0 0 107.76 231.55
  L 122.98 232.56
  Q 124.21 232.64 123.79 231.48
  Q 123.43 230.49 122.45 229.98
  Z"
/>
<path fill="#3a3935" d="
  M 89.20 34.32
  L 90.22 26.69
  A 0.83 0.82 -72.1 0 0 89.80 25.86
  Q 87.23 24.49 87.22 21.57
  Q 87.21 21.02 87.74 20.87
  L 97.95 17.97
  A 1.85 1.85 0.0 0 1 100.18 19.08
  Q 100.97 21.15 99.76 22.96
  Q 99.42 23.45 99.83 23.88
  L 104.85 29.25
  A 0.71 0.70 -63.5 0 0 106.07 28.84
  L 106.74 21.92
  Q 106.80 21.38 106.38 21.05
  C 104.97 19.93 102.93 19.05 103.55 16.81
  Q 103.68 16.31 104.17 16.13
  C 107.14 15.03 115.46 11.11 115.94 15.96
  Q 115.99 16.46 115.72 16.87
  C 112.56 21.73 112.01 29.74 110.86 35.44
  Q 110.75 35.99 110.22 36.15
  L 102.15 38.70
  A 0.84 0.84 0.0 0 1 101.27 38.45
  L 96.11 32.67
  A 0.46 0.45 -57.8 0 0 95.33 32.85
  Q 94.51 35.80 94.24 39.48
  C 94.04 42.11 87.59 42.94 85.59 43.56
  A 1.53 1.53 0.0 0 1 84.06 43.18
  L 72.96 32.09
  Q 72.65 31.78 72.22 31.69
  Q 68.61 30.94 68.82 27.27
  A 0.81 0.80 -7.4 0 1 69.38 26.55
  L 81.87 22.64
  A 1.69 1.69 0.0 0 1 83.96 23.69
  Q 84.75 25.96 83.53 27.91
  Q 83.20 28.43 83.59 28.89
  L 88.33 34.57
  A 0.49 0.49 0.0 0 0 89.20 34.32
  Z"
/>
<path fill="#3a3935" d="
  M 130.59 29.34
  A 0.63 0.62 73.3 0 0 130.04 30.37
  Q 132.14 32.78 131.36 35.98
  Q 131.22 36.53 130.66 36.44
  L 120.29 34.86
  A 1.70 1.70 0.0 0 1 119.53 31.81
  Q 125.32 27.49 128.67 21.16
  A 0.68 0.67 -51.3 0 0 128.59 20.40
  Q 127.08 18.58 127.57 16.17
  A 1.39 1.39 0.0 0 1 129.13 15.07
  L 148.17 17.84
  A 1.25 1.24 88.6 0 1 149.20 18.83
  Q 149.77 21.84 147.22 23.10
  A 0.77 0.77 0.0 0 0 146.83 24.06
  L 150.06 33.12
  Q 150.22 33.57 150.64 33.79
  C 152.70 34.87 153.22 37.58 151.47 39.10
  A 1.08 1.08 0.0 0 1 150.60 39.34
  Q 144.60 38.32 138.57 37.65
  C 134.02 37.15 137.38 33.24 139.22 32.24
  A 0.96 0.96 0.0 0 0 138.89 30.45
  L 130.59 29.34
  Z
  M 137.29 27.17
  A 0.35 0.34 -6.2 0 0 137.64 26.74
  L 136.63 22.77
  A 0.55 0.55 0.0 0 0 135.63 22.60
  L 133.15 26.34
  Q 132.78 26.90 133.45 26.94
  L 137.29 27.17
  Z"
/>
<path fill="#f0e6d9" d="
  M 137.29 27.17
  L 133.45 26.94
  Q 132.78 26.90 133.15 26.34
  L 135.63 22.60
  A 0.55 0.55 0.0 0 1 136.63 22.77
  L 137.64 26.74
  A 0.35 0.34 -6.2 0 1 137.29 27.17
  Z"
/>
<path fill="#3a3935" d="
  M 185.66 61.01
  C 184.87 60.45 177.83 56.24 177.64 54.23
  C 177.39 51.53 178.19 41.57 173.44 42.89
  Q 172.78 43.07 172.74 43.76
  L 172.41 48.66
  A 1.62 1.61 -70.5 0 1 169.87 49.88
  L 158.64 41.88
  Q 158.14 41.53 158.22 40.92
  Q 158.65 37.45 162.21 37.94
  A 0.88 0.87 -67.7 0 0 163.03 37.59
  C 165.81 33.85 168.58 31.46 167.67 26.28
  A 1.51 1.51 0.0 0 1 169.88 24.69
  C 177.48 28.84 188.90 35.84 192.94 43.55
  C 195.31 48.08 191.93 50.49 187.64 50.24
  Q 187.05 50.21 187.02 50.80
  Q 186.82 54.73 189.01 58.01
  Q 189.21 58.30 188.96 58.56
  L 186.67 60.92
  Q 186.20 61.40 185.66 61.01
  Z
  M 183.1590 40.7915
  A 1.14 1.14 0.0 0 0 182.9542 39.1923
  L 179.5519 36.5628
  A 1.14 1.14 0.0 0 0 177.9528 36.7676
  L 176.9010 38.1285
  A 1.14 1.14 0.0 0 0 177.1058 39.7277
  L 180.5081 42.3572
  A 1.14 1.14 0.0 0 0 182.1072 42.1524
  L 183.1590 40.7915
  Z"
/>
<path fill="#3a3935" d="
  M 63.11 53.21
  C 71.21 49.51 57.35 41.45 55.17 39.54
  A 0.63 0.63 0.0 0 1 55.16 38.59
  L 62.83 31.81
  A 0.80 0.79 44.1 0 1 63.87 31.80
  Q 66.23 33.76 65.25 36.86
  Q 65.08 37.40 65.50 37.77
  C 70.43 42.24 74.35 47.31 69.30 53.78
  Q 66.15 57.83 61.84 60.61
  C 55.74 64.56 50.67 58.93 46.95 54.77
  Q 46.59 54.37 46.06 54.38
  Q 42.95 54.43 41.25 51.99
  Q 40.83 51.40 41.37 50.91
  L 51.68 41.71
  A 1.50 1.50 0.0 0 1 54.10 42.36
  C 55.62 47.01 57.38 50.45 62.37 53.18
  Q 62.73 53.38 63.11 53.21
  Z"
/>
<rect fill="#f0e6d9" x="-3.29" y="-2.00" transform="translate(180.03,39.46) rotate(37.7)" width="6.58" height="4.00" rx="1.14"/>
<path fill="#3a3935" d="
  M 169.66 58.80
  Q 170.36 59.28 171.04 59.99
  A 0.58 0.57 41.6 0 1 171.09 60.72
  L 169.17 63.38
  A 0.62 0.62 0.0 0 1 168.30 63.51
  C 139.92 42.72 102.83 43.13 75.19 65.05
  Q 74.69 65.45 74.28 64.96
  L 72.19 62.50
  Q 71.83 62.08 72.26 61.74
  C 101.02 38.43 139.85 37.97 169.66 58.80
  Z"
/>
<path fill="#3a3935" d="
  M 91.26 60.19
  C 101.89 70.33 117.51 66.20 121.30 51.68
  A 0.42 0.42 0.0 0 1 122.09 51.62
  C 128.45 66.68 139.99 69.48 153.31 60.86
  Q 153.82 60.53 154.05 61.09
  C 159.33 73.84 168.27 77.72 181.13 71.93
  A 0.28 0.28 0.0 0 1 181.49 72.33
  L 161.86 103.65
  A 1.44 1.44 0.0 0 1 160.21 104.26
  C 134.29 96.16 110.06 96.70 83.86 103.98
  A 1.53 1.52 -23.6 0 1 82.15 103.32
  L 63.13 72.59
  Q 62.71 71.92 63.45 72.21
  Q 83.31 80.03 90.22 60.44
  A 0.64 0.64 0.0 0 1 91.26 60.19
  Z
  M 93.77 81.75
  A 2.08 2.08 0.0 0 0 91.69 79.67
  A 2.08 2.08 0.0 0 0 89.61 81.75
  A 2.08 2.08 0.0 0 0 91.69 83.83
  A 2.08 2.08 0.0 0 0 93.77 81.75
  Z
  M 154.87 81.94
  A 2.26 2.26 0.0 0 0 152.61 79.68
  A 2.26 2.26 0.0 0 0 150.35 81.94
  A 2.26 2.26 0.0 0 0 152.61 84.20
  A 2.26 2.26 0.0 0 0 154.87 81.94
  Z"
/>
<path fill="#3a3935" d="
  M 32.42 80.94
  A 0.44 0.44 0.0 0 0 32.32 81.77
  L 37.75 84.51
  A 0.67 0.67 0.0 0 0 38.59 84.30
  L 39.38 83.21
  Q 39.76 82.68 40.33 83.02
  L 43.36 84.89
  Q 43.92 85.23 43.60 85.81
  Q 40.94 90.60 38.04 95.23
  Q 37.78 95.66 37.29 95.53
  Q 33.89 94.60 34.43 91.41
  A 0.82 0.82 0.0 0 0 34.04 90.56
  L 27.06 86.46
  Q 26.54 86.16 25.94 86.25
  C 24.04 86.54 23.12 87.69 21.13 86.44
  A 1.84 1.83 -59.0 0 1 20.52 83.96
  Q 23.60 78.70 26.41 73.66
  C 27.14 72.36 38.36 69.75 40.41 69.12
  A 0.55 0.54 -38.1 0 0 40.53 68.13
  L 37.72 66.45
  A 0.94 0.93 -43.3 0 0 36.80 66.43
  C 34.46 67.67 30.05 66.45 31.91 63.56
  C 33.59 60.96 34.99 58.20 36.76 55.66
  Q 37.07 55.22 37.60 55.32
  Q 41.11 55.98 40.75 59.56
  A 0.87 0.87 0.0 0 0 41.18 60.39
  L 53.29 67.26
  Q 53.78 67.54 53.62 68.09
  C 50.60 78.11 41.15 79.01 32.42 80.94
  Z"
/>
<path fill="#3a3935" d="
  M 200.67 71.57
  C 197.99 82.61 192.42 69.37 191.83 66.76
  A 1.13 1.11 58.9 0 1 192.06 65.80
  Q 193.96 63.49 196.49 65.21
  Q 196.91 65.50 197.42 65.50
  L 207.27 65.50
  Q 207.85 65.50 207.94 64.92
  Q 208.30 62.51 210.55 61.37
  A 1.40 1.39 61.8 0 1 212.41 61.94
  L 221.86 78.94
  A 1.00 0.99 52.1 0 1 221.72 80.11
  Q 219.73 82.23 217.01 81.04
  Q 216.46 80.80 216.13 81.30
  L 210.81 89.36
  Q 210.50 89.82 210.54 90.36
  Q 210.80 94.27 206.95 94.40
  Q 206.46 94.41 206.23 93.98
  L 199.46 81.56
  Q 199.17 81.03 199.70 80.75
  Q 202.43 79.35 205.44 80.07
  A 0.61 0.61 0.0 0 0 206.12 79.18
  L 201.87 71.41
  A 0.65 0.65 0.0 0 0 200.67 71.57
  Z
  M 206.38 71.73
  A 0.59 0.59 0.0 0 0 205.85 72.57
  L 207.24 75.57
  A 0.59 0.59 0.0 0 0 208.23 75.70
  L 210.80 72.68
  A 0.59 0.59 0.0 0 0 210.34 71.71
  L 206.38 71.73
  Z"
/>
<path fill="#f0e6d9" d="
  M 206.38 71.73
  L 210.34 71.71
  A 0.59 0.59 0.0 0 1 210.80 72.68
  L 208.23 75.70
  A 0.59 0.59 0.0 0 1 207.24 75.57
  L 205.85 72.57
  A 0.59 0.59 0.0 0 1 206.38 71.73
  Z"
/>
<circle fill="#f0e6d9" cx="91.69" cy="81.75" r="2.08"/>
<circle fill="#f0e6d9" cx="152.61" cy="81.94" r="2.26"/>
<path fill="#3a3935" d="
  M 175.46 182.95
  L 173.53 180.78
  Q 173.15 180.35 173.55 179.95
  Q 178.29 175.04 180.23 172.71
  C 200.94 147.82 204.11 114.53 188.29 86.31
  Q 187.99 85.78 188.47 85.39
  L 190.85 83.41
  Q 191.61 82.79 192.08 83.65
  C 210.58 117.24 204.74 156.72 176.80 183.01
  A 0.94 0.93 47.5 0 1 175.46 182.95
  Z"
/>
<path fill="#3a3935" d="
  M 55.87 86.15
  Q 56.80 86.72 56.27 87.67
  C 39.91 116.99 45.98 152.54 68.69 176.80
  Q 68.99 177.11 68.68 177.42
  L 66.25 179.88
  Q 65.87 180.27 65.49 179.88
  C 40.92 154.08 35.14 116.23 52.68 84.87
  Q 52.96 84.37 53.45 84.67
  L 55.87 86.15
  Z"
/>
<path fill="#3a3935" d="
  M 160.74 106.81
  A 0.76 0.76 0.0 0 1 161.25 107.53
  L 161.25 137.24
  A 0.18 0.18 0.0 0 1 160.90 137.28
  C 156.56 119.81 150.23 105.68 130.05 103.50
  Q 127.12 103.18 124.78 102.45
  A 0.93 0.93 0.0 0 1 124.56 100.78
  Q 125.44 100.23 127.00 100.28
  Q 144.23 100.86 160.74 106.81
  Z"
/>
<path fill="#3a3935" d="
  M 82.83 108.03
  A 1.47 1.47 0.0 0 1 83.81 106.67
  Q 101.25 100.65 119.70 100.67
  A 0.59 0.59 0.0 0 1 120.26 101.45
  C 119.62 103.27 114.33 103.34 112.69 103.56
  C 100.13 105.22 91.06 113.06 87.13 125.23
  Q 85.21 131.19 83.45 137.46
  A 0.23 0.23 0.0 0 1 83.00 137.41
  Q 82.54 122.72 82.83 108.03
  Z"
/>
<circle fill="#3a3935" cx="122.21" cy="110.23" r="2.63"/>
<path fill="#3a3935" d="
  M 19.36 127.96
  A 0.15 0.15 0.0 0 1 19.17 128.04
  L 19.07 128.00
  A 8.18 7.01 -67.2 0 1 15.78 117.74
  L 15.87 117.54
  A 8.18 7.01 -67.2 0 1 25.50 112.72
  L 25.59 112.76
  A 0.15 0.15 0.0 0 1 25.67 112.95
  L 19.36 127.96
  Z"
/>
<path fill="#3a3935" d="
  M 217.40 129.09
  C 210.56 123.73 210.67 113.02 220.58 112.47
  A 0.51 0.51 0.0 0 1 221.11 113.07
  L 218.47 128.67
  A 0.67 0.66 -66.1 0 1 217.40 129.09
  Z"
/>
<path fill="#3a3935" d="
  M 223.74 113.02
  A 0.12 0.12 0.0 0 1 223.87 112.92
  L 223.88 112.92
  A 8.12 7.33 -80.9 0 1 229.84 122.10
  L 229.79 122.40
  A 8.12 7.33 -80.9 0 1 221.27 129.26
  L 221.26 129.25
  A 0.12 0.12 0.0 0 1 221.16 129.12
  L 223.74 113.02
  Z"
/>
<path fill="#3a3935" d="
  M 28.28 113.94
  A 0.13 0.13 0.0 0 1 28.45 113.87
  L 28.52 113.90
  A 8.14 6.85 -67.3 0 1 31.70 124.05
  L 31.57 124.35
  A 8.14 6.85 -67.3 0 1 22.11 129.22
  L 22.04 129.18
  A 0.13 0.13 0.0 0 1 21.97 129.01
  L 28.28 113.94
  Z"
/>
<path fill="#3a3935" d="
  M 128.20 122.26
  A 0.26 0.26 0.0 0 1 128.45 121.99
  L 128.59 121.99
  A 14.86 1.60 -1.4 0 1 143.49 123.22
  L 143.49 123.34
  A 14.86 1.60 -1.4 0 1 128.67 125.31
  L 128.53 125.31
  A 0.26 0.26 0.0 0 1 128.27 125.06
  L 128.20 122.26
  Z"
/>
<path fill="#3a3935" d="
  M 117.59 124.89
  A 0.25 0.25 0.0 0 1 117.34 125.14
  L 117.21 125.13
  A 15.60 1.38 1.3 0 1 101.64 123.40
  L 101.64 123.30
  A 15.60 1.38 1.3 0 1 117.27 122.27
  L 117.40 122.28
  A 0.25 0.25 0.0 0 1 117.64 122.53
  L 117.59 124.89
  Z"
/>
<path fill="#3a3935" d="
  M 115.77 130.36
  A 1.02 0.99 88.2 0 1 116.33 130.90
  C 116.52 131.34 115.87 131.62 115.69 131.81
  C 110.55 137.03 103.26 134.64 97.28 132.62
  Q 96.74 132.44 97.07 131.97
  C 100.70 126.93 110.67 128.44 115.77 130.36
  Z"
/>
<path fill="#3a3935" d="
  M 129.43 130.50
  C 132.39 129.35 147.78 126.39 147.67 132.36
  A 0.67 0.65 -5.6 0 1 147.14 132.99
  C 141.26 134.22 133.57 137.33 129.10 131.71
  A 0.78 0.77 -29.8 0 1 129.43 130.50
  Z"
/>
<path fill="#3a3935" d="
  M 215.86 170.99
  Q 218.00 171.52 219.06 169.97
  A 0.85 0.85 0.0 0 1 220.53 170.80
  L 217.42 177.62
  A 1.21 1.21 0.0 0 1 215.13 177.32
  L 214.85 175.63
  Q 214.75 175.01 214.18 174.72
  L 204.06 169.70
  Q 203.52 169.43 202.97 169.68
  L 200.83 170.63
  A 0.75 0.75 0.0 0 1 199.87 169.58
  Q 206.46 157.82 209.92 144.78
  A 0.49 0.49 0.0 0 1 210.59 144.46
  L 214.37 146.14
  A 1.51 1.51 0.0 0 1 214.25 148.95
  Q 213.22 149.31 212.42 148.66
  A 1.24 1.24 0.0 0 0 210.39 149.59
  C 210.26 154.74 214.49 153.88 217.52 151.20
  A 0.45 0.45 0.0 0 1 218.26 151.49
  L 218.64 154.58
  A 0.95 0.94 8.8 0 0 219.20 155.34
  Q 221.11 156.19 223.28 156.19
  A 1.71 1.70 61.9 0 0 224.23 153.07
  L 222.32 151.79
  A 1.45 1.45 0.0 0 1 223.42 149.17
  L 226.98 149.90
  A 1.24 1.24 0.0 0 1 227.91 151.51
  L 224.16 162.75
  A 0.92 0.91 48.5 0 1 222.40 162.64
  L 222.02 160.80
  A 0.94 0.93 3.4 0 0 221.40 160.11
  L 209.30 156.25
  A 0.82 0.79 -53.4 0 0 208.57 156.37
  C 206.06 158.25 209.46 159.52 210.40 160.57
  Q 210.78 161.01 210.52 161.53
  Q 209.56 163.48 207.56 162.43
  A 1.91 1.91 0.0 0 0 205.71 165.78
  L 208.82 167.58
  Q 209.25 167.83 209.54 167.43
  Q 210.52 166.10 211.89 165.22
  A 0.44 0.43 79.4 0 1 212.55 165.68
  Q 211.69 169.97 215.86 170.99
  Z"
/>
<path fill="#3a3935" d="
  M 85.68 161.27
  A 0.93 0.92 65.7 0 0 85.12 162.76
  Q 93.18 172.92 105.49 172.82
  C 109.26 172.79 113.12 170.87 116.98 171.23
  C 133.70 172.75 147.58 176.17 158.96 163.08
  A 1.15 1.15 0.0 0 0 157.58 161.29
  Q 153.11 163.49 148.36 161.92
  Q 147.74 161.72 148.15 161.21
  L 160.90 145.39
  Q 161.36 144.82 161.47 145.55
  L 167.77 188.95
  A 0.51 0.51 0.0 0 1 167.39 189.51
  Q 148.73 194.04 130.02 198.39
  C 121.84 200.29 114.84 199.63 106.98 197.81
  Q 91.73 194.27 76.84 189.42
  A 0.76 0.76 0.0 0 1 76.32 188.58
  L 82.93 145.53
  A 0.56 0.55 -64.0 0 1 83.86 145.21
  L 97.98 158.38
  A 0.82 0.81 -47.6 0 1 98.03 159.51
  Q 94.35 163.64 88.87 162.40
  C 87.79 162.16 86.85 161.06 85.68 161.27
  Z"
/>
<path fill="#3a3935" d="
  M 30.01 176.35
  A 1.25 1.25 0.0 0 0 31.70 176.91
  Q 33.84 175.81 35.52 177.31
  A 0.69 0.68 49.3 0 1 35.44 178.40
  L 30.73 181.39
  Q 30.11 181.78 29.79 181.12
  Q 25.75 172.86 22.09 164.46
  C 21.16 162.31 26.27 158.41 27.80 157.12
  A 0.81 0.81 0.0 0 0 27.27 155.69
  Q 22.96 155.74 21.66 159.85
  A 0.74 0.74 0.0 0 1 20.25 159.86
  L 17.27 151.14
  A 0.42 0.42 0.0 0 1 17.93 150.68
  L 20.76 153.01
  A 0.67 0.66 -34.8 0 0 21.41 153.12
  L 33.27 148.69
  A 0.69 0.69 0.0 0 0 33.71 147.93
  L 33.45 146.33
  A 0.82 0.82 0.0 0 1 34.94 145.74
  C 37.60 149.70 41.67 160.23 34.33 161.75
  Q 34.01 161.81 33.72 161.69
  L 30.61 160.38
  Q 30.08 160.16 29.62 160.49
  Q 26.42 162.77 24.80 166.33
  A 1.89 1.88 44.8 0 0 24.81 167.91
  C 26.78 172.14 36.19 165.92 38.88 164.55
  Q 39.21 164.38 39.35 164.03
  L 40.47 161.30
  A 0.61 0.61 0.0 0 1 41.59 161.28
  C 43.53 165.67 45.51 171.96 48.94 175.23
  Q 51.69 177.85 53.61 181.14
  Q 53.93 181.69 53.42 182.07
  L 50.41 184.35
  A 1.44 1.44 0.0 0 1 48.21 182.65
  L 49.48 179.60
  A 1.12 1.12 0.0 0 0 49.30 178.45
  Q 48.26 177.23 46.91 178.16
  A 1.41 1.40 81.0 0 0 46.37 178.91
  Q 45.45 182.10 45.13 185.42
  C 44.77 189.20 41.40 196.18 37.07 190.70
  Q 34.94 188.00 33.00 185.17
  Q 32.72 184.77 33.10 184.46
  L 37.32 180.99
  A 0.57 0.56 57.8 0 1 38.19 181.19
  L 39.16 183.21
  Q 39.45 183.82 38.92 184.24
  L 37.35 185.47
  A 0.84 0.82 57.9 0 0 37.13 186.49
  L 37.87 187.99
  A 1.61 1.61 0.0 0 0 40.83 187.81
  Q 42.89 181.91 43.20 175.56
  Q 43.22 175.11 42.82 174.91
  L 41.23 174.12
  Q 40.62 173.82 40.77 173.15
  Q 41.05 171.98 42.35 171.62
  A 1.10 1.09 -22.8 0 0 43.01 170.01
  Q 42.28 168.76 40.89 168.45
  Q 40.38 168.34 39.90 168.55
  Q 36.78 169.94 37.71 173.38
  A 0.46 0.45 -0.3 0 1 37.15 173.94
  Q 35.34 173.48 34.86 171.66
  A 0.53 0.53 0.0 0 0 34.08 171.34
  L 29.56 174.00
  Q 29.01 174.32 29.29 174.89
  L 30.01 176.35
  Z
  M 34.32 152.57
  L 30.74 153.92
  A 0.92 0.92 0.0 0 0 30.21 155.11
  L 30.27 155.28
  A 3.54 2.74 69.3 0 0 34.09 157.62
  L 34.25 157.56
  A 3.54 2.74 69.3 0 0 35.57 153.28
  L 35.50 153.11
  A 0.92 0.92 0.0 0 0 34.32 152.57
  Z"
/>
<path fill="#3a3935" d="
  M 122.71 162.91
  A 0.54 0.54 0.0 0 0 121.85 162.85
  Q 106.72 179.64 88.98 164.93
  A 0.51 0.51 0.0 0 1 89.41 164.03
  Q 94.92 165.14 98.63 160.94
  C 103.86 155.01 112.76 147.73 121.28 150.97
  A 1.57 1.57 0.0 0 0 122.27 151.00
  C 131.21 148.38 138.75 154.01 144.78 160.08
  C 147.98 163.30 150.42 164.61 154.71 164.42
  Q 155.53 164.38 154.93 164.93
  C 145.44 173.66 130.35 174.68 122.71 162.91
  Z"
/>
<path fill="#f0e6d9" d="
  M 34.32 152.57
  A 0.92 0.92 0.0 0 1 35.50 153.11
  L 35.57 153.28
  A 3.54 2.74 69.3 0 1 34.25 157.56
  L 34.09 157.62
  A 3.54 2.74 69.3 0 1 30.27 155.28
  L 30.21 155.11
  A 0.92 0.92 0.0 0 1 30.74 153.92
  L 34.32 152.57
  Z"
/>
<path fill="#3a3935" d="
  M 188.63 187.94
  A 2.23 2.22 56.1 0 0 187.92 191.57
  L 196.03 199.62
  Q 196.52 200.10 197.01 199.62
  L 198.77 197.85
  Q 199.15 197.47 198.98 196.97
  C 198.43 195.40 196.25 193.07 199.21 192.08
  Q 199.67 191.93 200.02 192.27
  C 203.34 195.56 201.60 200.99 197.20 202.07
  C 191.59 203.44 183.67 195.74 184.67 189.99
  Q 184.98 188.15 187.40 185.77
  Q 193.26 180.00 197.19 172.86
  A 0.83 0.83 0.0 0 1 198.75 173.30
  C 198.53 177.77 211.07 180.55 214.33 181.10
  A 0.51 0.51 0.0 0 1 214.66 181.90
  L 205.33 194.80
  A 0.60 0.60 0.0 0 1 204.26 194.62
  C 203.86 193.25 203.91 192.02 203.05 190.84
  C 201.20 188.29 196.60 181.86 193.10 182.25
  A 1.18 1.18 0.0 0 0 192.39 184.25
  L 194.36 186.27
  A 0.75 0.75 0.0 0 1 194.40 187.27
  L 192.86 189.09
  A 0.60 0.60 0.0 0 1 191.90 189.03
  Q 190.64 187.11 188.63 187.94
  Z
  M 203.16 181.30
  Q 200.09 179.43 196.76 178.06
  A 0.48 0.47 79.1 0 0 196.24 178.83
  Q 198.77 181.48 201.68 183.69
  Q 202.29 184.16 202.68 183.49
  L 203.40 182.26
  A 0.71 0.70 -59.2 0 0 203.16 181.30
  Z
  M 209.25 185.72
  A 2.38 2.38 0.0 0 0 206.87 183.34
  A 2.38 2.38 0.0 0 0 204.49 185.72
  A 2.38 2.38 0.0 0 0 206.87 188.10
  A 2.38 2.38 0.0 0 0 209.25 185.72
  Z"
/>
<path fill="#f0e6d9" d="
  M 203.16 181.30
  A 0.71 0.70 -59.2 0 1 203.40 182.26
  L 202.68 183.49
  Q 202.29 184.16 201.68 183.69
  Q 198.77 181.48 196.24 178.83
  A 0.48 0.47 79.1 0 1 196.76 178.06
  Q 200.09 179.43 203.16 181.30
  Z"
/>
<circle fill="#f0e6d9" cx="206.87" cy="185.72" r="2.38"/>
<path fill="#3a3935" d="
  M 97.40 220.66
  A 0.81 0.81 0.0 0 0 95.83 220.59
  L 94.51 225.41
  Q 94.35 225.98 94.85 226.30
  Q 95.98 227.01 96.44 228.16
  A 0.60 0.60 0.0 0 1 95.74 228.96
  L 88.30 227.13
  A 1.07 1.07 0.0 0 1 88.29 225.06
  L 89.76 224.69
  Q 90.32 224.55 90.45 223.99
  Q 91.87 218.14 93.31 212.29
  Q 93.44 211.78 93.02 211.46
  Q 91.36 210.20 89.33 210.00
  Q 88.73 209.94 88.52 210.50
  C 87.27 213.83 85.58 219.26 82.99 221.60
  C 79.24 224.99 70.22 220.87 72.41 215.83
  Q 74.67 210.63 76.94 205.45
  A 1.03 1.02 43.4 0 0 76.91 204.56
  Q 75.94 202.66 73.86 202.19
  A 0.71 0.71 0.0 0 0 73.05 202.61
  Q 71.21 207.12 69.17 211.47
  C 68.05 213.87 68.31 214.91 68.74 217.44
  A 0.55 0.54 12.4 0 1 67.89 217.98
  L 54.76 208.72
  A 0.85 0.84 -30.5 0 1 55.16 207.19
  C 58.91 206.78 66.16 200.42 67.07 196.74
  A 1.31 1.31 0.0 0 0 64.93 195.44
  L 62.01 198.01
  A 1.18 1.18 0.0 0 1 60.33 197.89
  C 59.08 196.43 61.89 194.15 62.80 193.18
  Q 63.15 192.82 62.74 192.53
  C 59.87 190.42 53.40 198.84 51.47 201.02
  A 1.24 1.23 -39.5 0 0 51.33 202.46
  Q 52.02 203.66 51.63 205.04
  A 0.73 0.73 0.0 0 1 50.39 205.34
  L 43.97 198.50
  A 0.40 0.40 0.0 0 1 44.33 197.83
  L 47.57 198.41
  A 1.19 1.16 -59.7 0 0 48.52 198.15
  C 50.50 196.49 58.65 189.70 56.12 186.90
  Q 55.67 186.41 55.34 186.98
  L 54.28 188.79
  A 1.22 1.20 -78.2 0 1 53.41 189.37
  L 51.87 189.56
  Q 51.02 189.67 51.22 188.83
  Q 52.01 185.54 54.74 183.62
  Q 55.19 183.30 55.60 183.67
  C 60.38 188.10 65.18 193.03 70.23 196.56
  C 80.07 203.43 89.85 207.51 101.56 211.32
  C 106.19 212.82 107.15 218.49 101.80 220.32
  A 0.87 0.86 80.6 0 0 101.22 221.14
  Q 101.28 226.31 104.59 230.20
  A 0.40 0.40 0.0 0 1 104.20 230.85
  L 99.65 229.82
  Q 99.04 229.69 98.93 229.08
  L 97.40 220.66
  Z
  M 65.21 205.53
  L 66.59 206.54
  A 0.43 0.43 0.0 0 0 67.19 206.44
  L 67.27 206.33
  A 7.25 1.17 -53.8 0 0 70.61 199.79
  L 70.43 199.66
  A 7.25 1.17 -53.8 0 0 65.20 204.82
  L 65.12 204.93
  A 0.43 0.43 0.0 0 0 65.21 205.53
  Z
  M 85.3605 208.9831
  A 2.36 2.36 0.0 0 0 84.1644 205.8673
  L 84.0183 205.8022
  A 2.36 2.36 0.0 0 0 80.9024 206.9982
  L 76.3795 217.1569
  A 2.36 2.36 0.0 0 0 77.5756 220.2727
  L 77.7217 220.3378
  A 2.36 2.36 0.0 0 0 80.8376 219.1418
  L 85.3605 208.9831
  Z
  M 65.82 209.67
  A 2.39 2.39 0.0 0 0 63.43 207.28
  A 2.39 2.39 0.0 0 0 61.04 209.67
  A 2.39 2.39 0.0 0 0 63.43 212.06
  A 2.39 2.39 0.0 0 0 65.82 209.67
  Z
  M 96.72 213.37
  L 96.29 217.01
  A 1.10 1.10 0.0 0 0 97.26 218.23
  L 97.44 218.25
  A 3.56 2.76 6.7 0 0 101.29 215.92
  L 101.33 215.58
  A 3.56 2.76 6.7 0 0 98.12 212.43
  L 97.94 212.41
  A 1.10 1.10 0.0 0 0 96.72 213.37
  Z"
/>
<path fill="#3a3935" d="
  M 178.29 208.77
  Q 178.26 207.10 176.94 206.03
  A 0.65 0.65 0.0 0 1 176.75 205.27
  Q 177.79 202.84 180.41 202.71
  A 0.63 0.62 -88.8 0 1 181.06 203.40
  Q 180.62 207.33 182.16 210.98
  A 0.54 0.53 68.4 0 0 182.84 211.28
  L 184.98 210.49
  Q 185.34 210.36 185.60 210.64
  C 187.11 212.32 181.66 215.05 179.28 216.52
  C 175.14 219.07 170.40 219.33 169.17 213.72
  C 168.82 212.13 169.43 210.46 169.53 208.74
  A 0.80 0.80 0.0 0 0 169.07 207.97
  C 159.54 203.35 173.90 195.75 175.33 201.15
  C 175.74 202.69 174.69 204.34 174.21 205.91
  A 0.92 0.91 26.8 0 0 174.55 206.93
  L 177.61 209.13
  Q 178.31 209.63 178.29 208.77
  Z
  M 169.7911 204.8023
  A 1.48 1.28 125.0 0 0 171.6885 204.3242
  A 1.48 1.28 125.0 0 0 171.4889 202.3777
  A 1.48 1.28 125.0 0 0 169.5915 202.8558
  A 1.48 1.28 125.0 0 0 169.7911 204.8023
  Z
  M 178.72 213.00
  L 172.58 209.89
  A 0.21 0.21 0.0 0 0 172.29 209.99
  L 172.25 210.08
  A 3.45 3.31 26.8 0 0 173.84 214.59
  L 174.19 214.77
  A 3.45 3.31 26.8 0 0 178.76 213.37
  L 178.81 213.28
  A 0.21 0.21 0.0 0 0 178.72 213.00
  Z"
/>
<path fill="#f0e6d9" d="
  M 65.21 205.53
  A 0.43 0.43 0.0 0 1 65.12 204.93
  L 65.20 204.82
  A 7.25 1.17 -53.8 0 1 70.43 199.66
  L 70.61 199.79
  A 7.25 1.17 -53.8 0 1 67.27 206.33
  L 67.19 206.44
  A 0.43 0.43 0.0 0 1 66.59 206.54
  L 65.21 205.53
  Z"
/>
<ellipse fill="#f0e6d9" cx="0.00" cy="0.00" transform="translate(170.64,203.59) rotate(125.0)" rx="1.48" ry="1.28"/>
<rect fill="#f0e6d9" x="-2.44" y="-7.92" transform="translate(80.87,213.07) rotate(24.0)" width="4.88" height="15.84" rx="2.36"/>
<path fill="#3a3935" d="
  M 130.75 219.99
  L 132.11 228.56
  Q 132.19 229.05 132.61 229.34
  L 134.45 230.57
  A 0.57 0.57 0.0 0 1 134.21 231.60
  L 127.01 232.64
  A 0.59 0.59 0.0 0 1 126.45 231.70
  L 128.21 229.36
  Q 128.45 229.04 128.41 228.63
  L 127.23 216.89
  Q 127.17 216.29 126.63 216.03
  Q 125.47 215.47 124.56 214.57
  A 0.51 0.51 0.0 0 1 124.85 213.70
  L 130.59 212.96
  Q 131.14 212.89 131.44 213.36
  L 136.86 221.92
  Q 137.44 222.84 137.50 221.75
  Q 137.73 216.89 134.48 213.43
  A 0.69 0.69 0.0 0 1 134.95 212.26
  Q 145.56 211.81 154.97 206.95
  A 0.95 0.94 64.2 0 1 156.26 207.40
  L 158.28 211.82
  A 1.38 1.37 53.8 0 1 158.06 213.29
  C 156.10 215.50 154.85 211.78 154.41 210.59
  Q 154.18 209.95 153.51 210.09
  Q 151.52 210.52 152.19 212.27
  Q 154.10 217.27 156.14 222.20
  Q 157.21 224.79 159.88 224.56
  A 0.57 0.57 0.0 0 1 160.12 225.66
  L 151.32 228.82
  A 0.51 0.50 -79.3 0 1 150.77 228.01
  C 152.21 226.38 152.90 225.22 152.03 222.98
  Q 150.13 218.08 148.23 213.09
  A 1.02 1.02 0.0 0 0 146.68 212.63
  L 145.83 213.25
  A 0.68 0.67 -38.5 0 0 145.71 214.25
  Q 147.73 216.54 145.62 218.28
  A 1.03 1.03 0.0 0 1 143.98 217.81
  L 142.82 214.24
  A 1.07 1.07 0.0 0 0 140.74 214.53
  Q 140.42 222.59 141.70 230.57
  A 0.64 0.63 -9.4 0 1 141.17 231.30
  C 137.50 231.86 132.98 222.41 131.79 219.69
  A 0.55 0.54 28.8 0 0 130.75 219.99
  Z"
/>
<circle fill="#f0e6d9" cx="63.43" cy="209.67" r="2.39"/>
<path fill="#f0e6d9" d="
  M 178.72 213.00
  A 0.21 0.21 0.0 0 1 178.81 213.28
  L 178.76 213.37
  A 3.45 3.31 26.8 0 1 174.19 214.77
  L 173.84 214.59
  A 3.45 3.31 26.8 0 1 172.25 210.08
  L 172.29 209.99
  A 0.21 0.21 0.0 0 1 172.58 209.89
  L 178.72 213.00
  Z"
/>
<path fill="#f0e6d9" d="
  M 96.72 213.37
  A 1.10 1.10 0.0 0 1 97.94 212.41
  L 98.12 212.43
  A 3.56 2.76 6.7 0 1 101.33 215.58
  L 101.29 215.92
  A 3.56 2.76 6.7 0 1 97.44 218.25
  L 97.26 218.23
  A 1.10 1.10 0.0 0 1 96.29 217.01
  L 96.72 213.37
  Z"
/>
<path fill="#3a3935" d="
  M 122.45 229.98
  Q 123.43 230.49 123.79 231.48
  Q 124.21 232.64 122.98 232.56
  L 107.76 231.55
  A 0.70 0.69 -72.8 0 1 107.21 230.50
  Q 111.17 223.84 112.54 216.19
  A 1.49 1.48 16.5 0 0 111.65 214.56
  Q 110.84 214.23 110.46 213.45
  Q 110.11 212.71 110.92 212.76
  L 122.00 213.52
  A 0.49 0.49 0.0 0 1 122.25 214.41
  C 118.83 216.80 121.13 225.10 121.53 228.65
  A 1.74 1.73 -79.8 0 0 122.45 229.98
  Z
  M 116.70 223.00
  L 117.29 216.30
  A 0.28 0.28 0.0 0 0 117.04 216.00
  L 116.91 215.99
  A 2.09 1.87 -84.9 0 0 114.86 217.90
  L 114.59 220.99
  A 2.09 1.87 -84.9 0 0 116.26 223.24
  L 116.39 223.25
  A 0.28 0.28 0.0 0 0 116.70 223.00
  Z
  M 115.3196 230.5945
  A 2.64 2.16 93.7 0 0 117.6455 228.0994
  A 2.64 2.16 93.7 0 0 115.6604 225.3255
  A 2.64 2.16 93.7 0 0 113.3345 227.8206
  A 2.64 2.16 93.7 0 0 115.3196 230.5945
  Z"
/>
<path fill="#f0e6d9" d="
  M 116.70 223.00
  A 0.28 0.28 0.0 0 1 116.39 223.25
  L 116.26 223.24
  A 2.09 1.87 -84.9 0 1 114.59 220.99
  L 114.86 217.90
  A 2.09 1.87 -84.9 0 1 116.91 215.99
  L 117.04 216.00
  A 0.28 0.28 0.0 0 1 117.29 216.30
  L 116.70 223.00
  Z"
/>
<ellipse fill="#f0e6d9" cx="0.00" cy="0.00" transform="translate(115.49,227.96) rotate(93.7)" rx="2.64" ry="2.16"/>
</svg>
