<?xml version="1.0" encoding="UTF-8" standalone="no"?>
<!DOCTYPE svg PUBLIC "-//W3C//DTD SVG 1.1//EN" "http://www.w3.org/Graphics/SVG/1.1/DTD/svg11.dtd">
<svg xmlns="http://www.w3.org/2000/svg" version="1.1" viewBox="0.00 0.00 1576.00 57.00">
<path fill="#817f77" d="
  M 29.99 12.48
  C 33.21 9.59 41.97 24.21 46.06 24.23
  Q 99.44 24.52 152.81 24.52
  C 611.72 24.53 1070.63 24.40 1529.54 24.49
  C 1532.99 24.49 1539.83 16.30 1542.49 13.75
  Q 1544.85 11.48 1547.01 13.24
  Q 1554.94 19.70 1561.08 27.12
  A 2.30 2.30 0.0 0 1 1561.03 30.10
  Q 1554.76 37.25 1547.48 43.74
  Q 1545.28 45.69 1543.34 43.92
  Q 1537.83 38.90 1532.71 33.51
  C 1531.10 31.81 1518.45 32.43 1516.19 32.43
  Q 780.96 32.47 45.73 32.54
  A 1.26 1.24 23.0 0 0 44.87 32.88
  Q 39.25 38.19 33.74 43.48
  C 30.96 46.15 29.51 44.29 27.07 42.18
  Q 20.47 36.48 15.41 30.11
  A 2.52 2.52 0.0 0 1 15.52 26.85
  Q 22.22 19.47 29.99 12.48
  Z
  M 37.0304 29.1143
  A 0.59 0.59 0.0 0 0 37.0290 28.2799
  L 31.4898 22.7600
  A 0.59 0.59 0.0 0 0 30.6554 22.7615
  L 25.3896 28.0457
  A 0.59 0.59 0.0 0 0 25.3910 28.8801
  L 30.9302 34.4000
  A 0.59 0.59 0.0 0 0 31.7646 34.3985
  L 37.0304 29.1143
  Z
  M 1551.2092 28.9369
  A 0.60 0.60 0.0 0 0 1551.2077 28.0883
  L 1545.7110 22.6108
  A 0.60 0.60 0.0 0 0 1544.8625 22.6123
  L 1539.3708 28.1231
  A 0.60 0.60 0.0 0 0 1539.3723 28.9717
  L 1544.8690 34.4492
  A 0.60 0.60 0.0 0 0 1545.7175 34.4477
  L 1551.2092 28.9369
  Z"
/>
</svg>
